<svg xmlns="http://www.w3.org/2000/svg" viewBox="0 0 16 16">
    <path style="line-height:normal;text-indent:0;text-align:start;text-decoration-line:none;text-decoration-style:solid;text-decoration-color:#000;text-transform:none;block-progression:tb;isolation:auto;mix-blend-mode:normal" d="M 7.4921875 0.9921875 A 0.50005 0.50005 0 0 0 7 1.5 L 7 3.4257812 A 0.50005 0.50005 0 0 0 7.0371094 3.6894531 C 6.9888563 3.6516019 6.9640942 3.6274244 6.90625 3.5878906 A 0.50005 0.50005 0 0 0 6.90625 3.5859375 C 6.4955608 3.3059454 6.0143684 3.1044005 5.515625 3.0332031 C 5.0168816 2.9620057 4.5005741 3.0222304 4.0175781 3.265625 C 2.6440159 3.9572172 2 5.5915179 2 7.5 C 2 8.8408034 2.3217753 10.390025 2.9355469 11.660156 C 3.2424327 12.295222 3.6218182 12.862733 4.0996094 13.289062 C 4.5774006 13.715392 5.1718989 14 5.8320312 14 C 6.4490412 14 6.9031434 13.702891 7.1835938 13.466797 C 7.3238189 13.34875 7.4320505 13.245572 7.4980469 13.195312 C 7.4980469 13.195312 7.5 13.193359 7.5 13.193359 C 7.5 13.193359 7.5019531 13.195312 7.5019531 13.195312 C 7.5679491 13.245572 7.6761812 13.34875 7.8164062 13.466797 C 8.0968596 13.702894 8.5509587 14 9.1679688 14 C 9.8281011 14 10.422599 13.715393 10.900391 13.289062 C 11.378182 12.862733 11.757567 12.295222 12.064453 11.660156 C 12.678225 10.390025 13 8.8408034 13 7.5 C 13 7.4833468 12.998095 7.4659169 12.998047 7.4492188 A 0.50005 0.50005 0 0 0 12.998047 7.4453125 C 12.995733 6.6960768 12.945312 5.9042947 12.720703 5.1992188 C 12.467703 5.3562188 12.167406 5.5114375 11.816406 5.6484375 C 11.941406 6.1204375 12 6.723 12 7.5 C 12 8.6751966 11.696042 10.125694 11.164062 11.226562 C 10.898074 11.776998 10.576803 12.237423 10.234375 12.542969 C 9.8919474 12.848514 9.5493364 13 9.1679688 13 C 8.8469786 13 8.6752372 12.881578 8.4609375 12.701172 C 8.3537876 12.610969 8.2465193 12.504365 8.1074219 12.398438 C 8.0109824 12.324994 7.8743532 12.25847 7.7167969 12.214844 A 0.50005 0.50005 0 0 0 7.5 12.167969 A 0.50005 0.50005 0 0 0 7.2851562 12.214844 C 7.1267478 12.258339 6.9893848 12.324715 6.8925781 12.398438 C 6.7534838 12.504363 6.6462124 12.610969 6.5390625 12.701172 C 6.3247628 12.881578 6.1530213 13 5.8320312 13 C 5.4506637 13 5.1080526 12.848514 4.765625 12.542969 C 4.4231974 12.237423 4.1019267 11.776998 3.8359375 11.226562 C 3.3039591 10.125694 3 8.6751966 3 7.5 C 3 5.8144821 3.5583122 4.616611 4.46875 4.1582031 C 5.030758 3.8749923 5.7511284 4.0100404 6.34375 4.4140625 L 6.34375 4.4121094 C 6.435117 4.4745544 6.5636203 4.5976504 6.7421875 4.7265625 C 6.9207547 4.8554715 7.177381 5 7.5 5 A 0.50005 0.50005 0 0 0 8.0058594 4.46875 C 8.475636 4.7365573 9.1381663 5 10 5 C 11.722222 5 12.853516 3.8535156 12.853516 3.8535156 A 0.50005 0.50005 0 0 0 12.876953 3.1699219 C 12.87695 3.1699219 11.830128 2 10 2 C 9.1388393 2 8.4866808 2.2762913 8 2.5507812 L 8 1.5 A 0.50005 0.50005 0 0 0 7.4921875 0.9921875 z M 10 3 C 10.82446 3 11.335681 3.2459779 11.679688 3.4804688 C 11.308374 3.7276974 10.77588 4 10 4 C 9.2241203 4 8.6916251 3.7276974 8.3203125 3.4804688 C 8.6643193 3.2459779 9.1755398 3 10 3 z M 6.5 7.5 C 6.5 7.5 6 8.224 6 8.5 C 6 8.776 6.224 9 6.5 9 C 6.776 9 7 8.776 7 8.5 C 7 8.224 6.5 7.5 6.5 7.5 z M 8.5 7.5 C 8.5 7.5 8 8.224 8 8.5 C 8 8.776 8.224 9 8.5 9 C 8.776 9 9 8.776 9 8.5 C 9 8.224 8.5 7.5 8.5 7.5 z" font-weight="400" font-family="sans-serif" white-space="normal" overflow="visible"></path>
</svg>