<svg xmlns="http://www.w3.org/2000/svg" viewBox="0 0 16 16">
    <path style="line-height:normal;text-indent:0;text-align:start;text-decoration-line:none;text-decoration-style:solid;text-decoration-color:#000;text-transform:none;block-progression:tb;isolation:auto;mix-blend-mode:normal" d="M 10.722656 1.9980469 C 10.347049 2.0141544 9.9549828 2.062629 9.5546875 2.140625 C 7.9535068 2.452609 6.1822553 3.2870227 4.734375 4.734375 C 3.2864168 6.1818051 2.4506604 7.9532175 2.1386719 9.5546875 C 1.8266834 11.156157 1.9840051 12.621387 2.8242188 13.460938 C 3.2442179 13.880605 3.8275338 14.047187 4.3945312 13.986328 C 4.9615288 13.925468 5.5314463 13.679547 6.1289062 13.320312 C 7.3238261 12.601844 8.6411762 11.405697 10.023438 10.023438 C 11.40572 8.6411548 12.601857 7.3219846 13.320312 6.1269531 C 13.679542 5.5294374 13.925468 4.9614866 13.986328 4.3945312 C 14.047188 3.8275759 13.880715 3.2439961 13.460938 2.8242188 C 13.040942 2.4045561 12.464082 2.1559455 11.792969 2.0507812 C 11.457412 1.9981992 11.098264 1.9819394 10.722656 1.9980469 z M 10.75 3.0097656 C 11.064541 3.0022832 11.355837 3.0226603 11.617188 3.0644531 C 12.139886 3.1480391 12.540901 3.3184126 12.753906 3.53125 C 12.966629 3.7439727 13.028733 3.9466585 12.992188 4.2871094 C 12.955642 4.6275603 12.778287 5.088672 12.462891 5.6132812 C 11.832097 6.6624998 10.676124 7.9566885 9.3164062 9.3164062 C 7.9566671 10.676145 6.6623614 11.83211 5.6132812 12.462891 C 5.0887412 12.778281 4.6276119 12.955639 4.2871094 12.992188 C 3.9466068 13.028734 3.7442508 12.966739 3.53125 12.753906 C 3.1054636 12.328456 2.8470822 11.152624 3.1210938 9.7460938 C 3.2142932 9.2676912 3.3854422 8.7659156 3.5917969 8.2617188 C 4.6036319 8.5408592 5.2324219 8.921875 5.2324219 8.921875 A 0.50005 0.50005 0 1 0 5.7675781 8.078125 C 5.7675781 8.078125 5.0815292 7.6648518 4.0234375 7.3476562 C 4.260142 6.9208645 4.5308423 6.500463 4.8554688 6.0996094 C 6.2958991 6.345666 7.2324219 6.921875 7.2324219 6.921875 A 0.50005 0.50005 0 1 0 7.7675781 6.078125 C 7.7675781 6.078125 6.9274551 5.5739096 5.6464844 5.2519531 C 6.1264087 4.8034281 6.645479 4.4411842 7.1757812 4.1308594 C 8.3991724 4.3823242 9.2226563 4.9160156 9.2226562 4.9160156 A 0.50005 0.50005 0 1 0 9.7773438 4.0839844 C 9.7773438 4.0839844 9.2799688 3.7717724 8.5136719 3.4824219 C 8.9324744 3.3264507 9.3475222 3.1987539 9.7460938 3.1210938 C 10.097673 3.0525898 10.435459 3.017248 10.75 3.0097656 z" font-weight="400" font-family="sans-serif" white-space="normal" overflow="visible"></path>
</svg>