<svg xmlns="http://www.w3.org/2000/svg" viewBox="0 0 16 16">
    <path style="line-height:normal;text-indent:0;text-align:start;text-decoration-line:none;text-decoration-style:solid;text-decoration-color:#000;text-transform:none;block-progression:tb;isolation:auto;mix-blend-mode:normal" d="M 7.5 2 C 6.0329372 2 4.6978275 2.3757224 3.6972656 3.0058594 C 2.6967038 3.6359964 2 4.5588219 2 5.625 L 2 6.09375 C 1.4209662 6.3022261 1 6.8531387 1 7.5 C 1 7.8840922 1.1513388 8.2333827 1.3925781 8.5 C 1.1513388 8.7666173 1 9.1159078 1 9.5 C 1 10.146861 1.4209662 10.697774 2 10.90625 L 2 11.5 C 2 12.322531 2.6774686 13 3.5 13 L 11.5 13 C 12.322531 13 13 12.322531 13 11.5 L 13 10.90625 C 13.579034 10.697774 14 10.146861 14 9.5 C 14 9.1159078 13.848661 8.7666173 13.607422 8.5 C 13.848661 8.2333827 14 7.8840922 14 7.5 C 14 6.8531387 13.579034 6.3022261 13 6.09375 L 13 5.5625 C 13 4.4963219 12.298316 3.5842398 11.296875 2.9707031 C 10.295434 2.3571664 8.9633202 2 7.5 2 z M 7.5 3 C 8.7976798 3 9.9651278 3.3290053 10.773438 3.8242188 C 11.581746 4.319432 12 4.9376781 12 5.5625 L 12 6 L 3 6 L 3 5.625 C 3 5.0001781 3.4212806 4.3611755 4.2304688 3.8515625 C 5.0396569 3.3419495 6.2060628 3 7.5 3 z M 2.5 7 L 12.464844 7 L 12.5 7 C 12.781469 7 13 7.2185314 13 7.5 C 13 7.7814686 12.781469 8 12.5 8 L 2.5351562 8 L 2.5 8 C 2.2185314 8 2 7.7814686 2 7.5 C 2 7.2185314 2.2185314 7 2.5 7 z M 2.5 9 L 3.4179688 9 A 0.50005 0.50005 0 0 0 3.2988281 9.0351562 A 0.50005 0.50005 0 0 0 3.2109375 9.0839844 A 0.50005 0.50005 0 0 0 3.1035156 9.1875 A 0.50005 0.50005 0 0 0 3.0507812 9.2714844 A 0.50005 0.50005 0 0 0 3.03125 9.3183594 A 0.50005 0.50005 0 0 0 3.015625 9.3652344 A 0.50005 0.50005 0 0 0 3.015625 9.3671875 A 0.50005 0.50005 0 0 0 3.0058594 9.4140625 A 0.50005 0.50005 0 0 0 3 9.4648438 A 0.50005 0.50005 0 0 0 3 9.5 C 3 9.7703437 2.7965817 9.9777821 2.53125 9.9941406 A 0.50005 0.50005 0 0 0 2.4921875 9.9921875 A 0.50005 0.50005 0 0 0 2.46875 9.9941406 C 2.2034183 9.9777821 2 9.7703437 2 9.5 C 2 9.2185314 2.2185314 9 2.5 9 z M 3.5917969 9 L 5.4179688 9 A 0.50005 0.50005 0 0 0 5.3789062 9.0078125 A 0.50005 0.50005 0 0 0 5.3691406 9.0097656 A 0.50005 0.50005 0 0 0 5.3457031 9.0175781 A 0.50005 0.50005 0 0 0 5.3105469 9.03125 A 0.50005 0.50005 0 0 0 5.2832031 9.0429688 A 0.50005 0.50005 0 0 0 5.2753906 9.046875 A 0.50005 0.50005 0 0 0 5.2539062 9.0585938 A 0.50005 0.50005 0 0 0 5.2246094 9.0761719 A 0.50005 0.50005 0 0 0 5.2109375 9.0839844 A 0.50005 0.50005 0 0 0 5.1914062 9.0996094 A 0.50005 0.50005 0 0 0 5.171875 9.1152344 A 0.50005 0.50005 0 0 0 5.1542969 9.1328125 A 0.50005 0.50005 0 0 0 5.1367188 9.1503906 A 0.50005 0.50005 0 0 0 5.1113281 9.1777344 A 0.50005 0.50005 0 0 0 5.1035156 9.1875 A 0.50005 0.50005 0 0 0 5.0898438 9.2089844 A 0.50005 0.50005 0 0 0 5.0722656 9.234375 A 0.50005 0.50005 0 0 0 5.0546875 9.2675781 A 0.50005 0.50005 0 0 0 5.0449219 9.2851562 A 0.50005 0.50005 0 0 0 5.0390625 9.3027344 A 0.50005 0.50005 0 0 0 5.0253906 9.3359375 A 0.50005 0.50005 0 0 0 5.0214844 9.3496094 A 0.50005 0.50005 0 0 0 5.0136719 9.375 A 0.50005 0.50005 0 0 0 5.0097656 9.390625 A 0.50005 0.50005 0 0 0 5.0058594 9.4160156 A 0.50005 0.50005 0 0 0 5.0019531 9.453125 A 0.50005 0.50005 0 0 0 5 9.4648438 A 0.50005 0.50005 0 0 0 5 9.4902344 A 0.50005 0.50005 0 0 0 5 9.5 C 5 9.7814686 4.7814686 10 4.5 10 C 4.2185314 10 4 9.7814686 4 9.5 A 0.50005 0.50005 0 0 0 3.9628906 9.3046875 A 0.50005 0.50005 0 0 0 3.8867188 9.1757812 A 0.50005 0.50005 0 0 0 3.7773438 9.0761719 A 0.50005 0.50005 0 0 0 3.7753906 9.0761719 A 0.50005 0.50005 0 0 0 3.734375 9.0507812 A 0.50005 0.50005 0 0 0 3.7324219 9.0507812 A 0.50005 0.50005 0 0 0 3.6894531 9.0292969 A 0.50005 0.50005 0 0 0 3.6875 9.0292969 A 0.50005 0.50005 0 0 0 3.5917969 9 z M 5.59375 9 L 7.4179688 9 A 0.50005 0.50005 0 0 0 7.3789062 9.0078125 A 0.50005 0.50005 0 0 0 7.3691406 9.0097656 A 0.50005 0.50005 0 0 0 7.3457031 9.0175781 A 0.50005 0.50005 0 0 0 7.3105469 9.03125 A 0.50005 0.50005 0 0 0 7.2988281 9.0351562 A 0.50005 0.50005 0 0 0 7.2753906 9.046875 A 0.50005 0.50005 0 0 0 7.2109375 9.0839844 A 0.50005 0.50005 0 0 0 7.1914062 9.0996094 A 0.50005 0.50005 0 0 0 7.171875 9.1152344 A 0.50005 0.50005 0 0 0 7.1542969 9.1328125 A 0.50005 0.50005 0 0 0 7.1367188 9.1503906 A 0.50005 0.50005 0 0 0 7.1113281 9.1777344 A 0.50005 0.50005 0 0 0 7.1035156 9.1875 A 0.50005 0.50005 0 0 0 7.0898438 9.2089844 A 0.50005 0.50005 0 0 0 7.0507812 9.2714844 A 0.50005 0.50005 0 0 0 7.0410156 9.2949219 A 0.50005 0.50005 0 0 0 7.03125 9.3183594 A 0.50005 0.50005 0 0 0 7.0234375 9.3417969 A 0.50005 0.50005 0 0 0 7.0117188 9.3808594 A 0.50005 0.50005 0 0 0 7.0058594 9.4101562 A 0.50005 0.50005 0 0 0 7.0058594 9.4179688 A 0.50005 0.50005 0 0 0 7.0019531 9.453125 A 0.50005 0.50005 0 0 0 7 9.4648438 A 0.50005 0.50005 0 0 0 7 9.4902344 A 0.50005 0.50005 0 0 0 7 9.5 C 7 9.7814686 6.7814686 10 6.5 10 C 6.2185314 10 6 9.7814686 6 9.5 A 0.50005 0.50005 0 0 0 5.9980469 9.4492188 A 0.50005 0.50005 0 0 0 5.8164062 9.1054688 A 0.50005 0.50005 0 0 0 5.7753906 9.0761719 A 0.50005 0.50005 0 0 0 5.6875 9.0292969 A 0.50005 0.50005 0 0 0 5.59375 9 z M 7.5917969 9 L 9.4179688 9 A 0.50005 0.50005 0 0 0 9.0507812 9.2714844 A 0.50005 0.50005 0 0 0 9.0507812 9.2734375 A 0.50005 0.50005 0 0 0 9.015625 9.3652344 A 0.50005 0.50005 0 0 0 9.015625 9.3671875 A 0.50005 0.50005 0 0 0 9.0058594 9.4140625 A 0.50005 0.50005 0 0 0 9.0058594 9.4160156 A 0.50005 0.50005 0 0 0 9 9.4648438 A 0.50005 0.50005 0 0 0 9 9.5 C 9 9.7814686 8.7814686 10 8.5 10 C 8.2185314 10 8 9.7814686 8 9.5 A 0.50005 0.50005 0 0 0 7.9628906 9.3046875 A 0.50005 0.50005 0 0 0 7.8867188 9.1757812 A 0.50005 0.50005 0 0 0 7.7773438 9.0761719 A 0.50005 0.50005 0 0 0 7.7753906 9.0761719 A 0.50005 0.50005 0 0 0 7.734375 9.0507812 A 0.50005 0.50005 0 0 0 7.7324219 9.0507812 A 0.50005 0.50005 0 0 0 7.6894531 9.0292969 A 0.50005 0.50005 0 0 0 7.6875 9.0292969 A 0.50005 0.50005 0 0 0 7.5917969 9 z M 9.5917969 9 L 11.371094 9 A 0.50030889 0.50030889 0 0 0 11 9.4648438 A 0.50005 0.50005 0 0 0 11 9.5 C 11 9.7814686 10.781469 10 10.5 10 C 10.218531 10 10 9.7814686 10 9.5 A 0.50005 0.50005 0 0 0 9.9980469 9.4492188 A 0.50005 0.50005 0 0 0 9.7753906 9.0761719 A 0.50005 0.50005 0 0 0 9.734375 9.0507812 A 0.50005 0.50005 0 0 0 9.7324219 9.0507812 A 0.50005 0.50005 0 0 0 9.6894531 9.0292969 A 0.50005 0.50005 0 0 0 9.6875 9.0292969 A 0.50005 0.50005 0 0 0 9.5917969 9 z M 11.628906 9 L 12.464844 9 L 12.5 9 C 12.781469 9 13 9.2185314 13 9.5 C 13 9.7703437 12.796582 9.9777821 12.53125 9.9941406 A 0.50005 0.50005 0 0 0 12.46875 9.9941406 C 12.203418 9.9777821 12 9.7703437 12 9.5 A 0.50030889 0.50030889 0 0 0 11.628906 9 z M 3.5 10.607422 C 3.7666173 10.848661 4.1159078 11 4.5 11 C 4.8840922 11 5.2333827 10.848661 5.5 10.607422 C 5.7666173 10.848661 6.1159078 11 6.5 11 C 6.8840922 11 7.2333827 10.848661 7.5 10.607422 C 7.7666173 10.848661 8.1159078 11 8.5 11 C 8.8840922 11 9.2333827 10.848661 9.5 10.607422 C 9.7666173 10.848661 10.115908 11 10.5 11 C 10.884092 11 11.233383 10.848661 11.5 10.607422 C 11.644689 10.738339 11.814266 10.840058 12 10.908203 L 12 11.5 C 12 11.781469 11.781469 12 11.5 12 L 3.5 12 C 3.2185314 12 3 11.781469 3 11.5 L 3 10.908203 C 3.1857342 10.840058 3.3553105 10.738339 3.5 10.607422 z"></path>
</svg>