<svg xmlns="http://www.w3.org/2000/svg" viewBox="0 0 16 16">
    <path style="line-height:normal;text-indent:0;text-align:start;text-decoration-line:none;text-decoration-style:solid;text-decoration-color:#000;text-transform:none;block-progression:tb;isolation:auto;mix-blend-mode:normal" d="M 12.507812 2.9941406 A 0.50005 0.50005 0 0 0 12.052734 3.7226562 L 12.152344 3.9199219 L 3.9609375 6.5957031 C 3.9250873 6.3231578 3.8559976 5.9622401 3.6894531 5.5585938 C 3.5394717 5.1950906 3.31144 4.8112218 2.9511719 4.5078125 C 2.5909037 4.2044032 2.0918046 4 1.5 4 A 0.50005 0.50005 0 1 0 1.5 5 C 1.8766954 5 2.110315 5.1080968 2.3066406 5.2734375 C 2.5029662 5.4387782 2.6557783 5.6799095 2.7636719 5.9414062 C 2.948419 6.3891697 2.9801269 6.7893801 2.9882812 6.9140625 L 1.8808594 7.2753906 A 0.50005 0.50005 0 0 0 1.6445312 7.4394531 C 1.6445312 7.4394531 0.9388755 8.3323557 1.0039062 9.6503906 C 1.01988 9.9674702 1.1025483 10.314562 1.2226562 10.671875 L 0.31445312 11.035156 A 0.50050733 0.50050733 0 1 0 0.68554688 11.964844 L 1.6621094 11.574219 C 2.6767825 13.067638 4.4472656 12.998047 4.4472656 12.998047 A 0.50005 0.50005 0 0 0 4.6191406 12.955078 L 5.2929688 12.646484 C 5.7115198 13.445389 6.5402014 14 7.5 14 C 8.8747896 14 10 12.87479 10 11.5 C 10 10.947761 9.8141748 10.440334 9.5078125 10.025391 L 13.960938 7.5390625 L 14.052734 7.7226562 A 0.50005 0.50005 0 1 0 14.947266 7.2773438 L 12.947266 3.2773438 A 0.50005 0.50005 0 0 0 12.507812 2.9941406 z M 12.603516 4.8222656 L 13.513672 6.6425781 L 8.7070312 9.3261719 C 8.3471022 9.1247149 7.9395883 9 7.5 9 C 6.1252104 9 5 10.12521 5 11.5 C 5 11.558188 5.0136131 11.612695 5.0175781 11.669922 L 4.3144531 11.994141 C 4.2137468 12.002424 2.9587473 12.090817 2.3027344 10.728516 C 2.1009989 10.309257 2.0187261 9.9325529 2.0019531 9.5996094 C 1.9579114 8.706978 2.348854 8.2240549 2.4003906 8.15625 L 12.603516 4.8222656 z M 7.5 10 C 8.3343494 10 9 10.665651 9 11.5 C 9 12.334349 8.3343494 13 7.5 13 C 6.6656506 13 6 12.334349 6 11.5 C 6 10.665651 6.6656506 10 7.5 10 z M 7.5 11 A 0.5 0.5 0 0 0 7 11.5 A 0.5 0.5 0 0 0 7.5 12 A 0.5 0.5 0 0 0 8 11.5 A 0.5 0.5 0 0 0 7.5 11 z" font-weight="400" font-family="sans-serif" white-space="normal" overflow="visible"></path>
</svg>