<svg xmlns="http://www.w3.org/2000/svg" viewBox="0 0 16 16">
    <path style="line-height:normal;text-indent:0;text-align:start;text-decoration-line:none;text-decoration-style:solid;text-decoration-color:#000;text-transform:none;block-progression:tb;isolation:auto;mix-blend-mode:normal" d="M 6.5097656 2 A 0.50005 0.50005 0 0 0 6.3691406 2.0175781 C 4.2298086 2.5973371 2.7341272 4.050928 2.0253906 6.2207031 A 0.50005 0.50005 0 0 0 2 6.5039062 L 2 13.5 A 0.50005 0.50005 0 0 0 2.5 14 L 13.5 14 A 0.50005 0.50005 0 0 0 14 13.5 L 14 11.5 A 0.50005 0.50005 0 0 0 13.5 11 C 13.218531 11 13 10.781469 13 10.5 C 13 10.218531 13.218531 10 13.5 10 A 0.50005 0.50005 0 0 0 14 9.5 L 14 6.6484375 A 0.50005 0.50005 0 0 0 13.769531 6.0800781 A 0.50005 0.50005 0 0 0 13.761719 6.0742188 A 0.50005 0.50005 0 0 0 13.748047 6.0664062 L 6.7480469 2.0664062 A 0.50005 0.50005 0 0 0 6.5097656 2 z M 6.4804688 3.0644531 L 11.617188 6 L 3.1777344 6 C 3.8200759 4.4713697 4.9012127 3.5389565 6.4804688 3.0644531 z M 3 7 L 13 7 L 13 9.2089844 C 12.446831 9.430766 12 9.8717882 12 10.5 C 12 11.128212 12.446831 11.569234 13 11.791016 L 13 13 L 3 13 L 3 7 z M 5.5 8 C 4.6774952 8 4 8.6774952 4 9.5 C 4 10.322505 4.6774952 11 5.5 11 C 6.3225048 11 7 10.322505 7 9.5 C 7 8.6774952 6.3225048 8 5.5 8 z M 10.5 8 A 0.5 0.5 0 0 0 10 8.5 A 0.5 0.5 0 0 0 10.5 9 A 0.5 0.5 0 0 0 11 8.5 A 0.5 0.5 0 0 0 10.5 8 z M 5.5 9 C 5.7820647 9 6 9.2179353 6 9.5 C 6 9.7820647 5.7820647 10 5.5 10 C 5.2179353 10 5 9.7820647 5 9.5 C 5 9.2179353 5.2179353 9 5.5 9 z M 9 10 A 1 1 0 0 0 8 11 A 1 1 0 0 0 9 12 A 1 1 0 0 0 10 11 A 1 1 0 0 0 9 10 z" font-weight="400" font-family="sans-serif" white-space="normal" overflow="visible"></path>
</svg>