<svg xmlns="http://www.w3.org/2000/svg" viewBox="0 0 16 16">
    <path style="line-height:normal;text-indent:0;text-align:start;text-decoration-line:none;text-decoration-style:solid;text-decoration-color:#000;text-transform:none;block-progression:tb;isolation:auto;mix-blend-mode:normal" d="M 9.0507812 1.9589844 C 8.7513852 1.9615995 8.6493956 1.9833881 8.5644531 1.9960938 A 0.50005 0.50005 0 0 0 8.5488281 1.9941406 A 0.50005 0.50005 0 0 0 8.5429688 1.9941406 A 0.50005 0.50005 0 0 0 8.4980469 1.9921875 A 0.50005 0.50005 0 0 0 8.4960938 1.9921875 A 0.50005 0.50005 0 0 0 8.4941406 1.9921875 A 0.50005 0.50005 0 0 0 8.4921875 1.9921875 A 0.50005 0.50005 0 0 0 8.4863281 1.9921875 A 0.50005 0.50005 0 0 0 8.3984375 2.0019531 A 0.50005 0.50005 0 0 0 8.3925781 2.0039062 A 0.50005 0.50005 0 0 0 8.0976562 2.1894531 C 5.3994483 4.467928 5.0543669 7.9136723 5.0214844 8.3183594 C 4.6604708 8.1109414 4.262817 8.0081051 3.8730469 8.0390625 C 3.7616634 8.0479091 3.6513199 8.0666333 3.5429688 8.0957031 C 2.6990079 8.3221317 2.0402388 9.1551053 2.0058594 10.285156 A 0.50005 0.50005 0 0 0 2 10.375 A 0.50005 0.50005 0 0 0 2.0117188 10.488281 C 2.0697644 12.381077 3.5388244 13.924674 5.3847656 13.988281 A 0.50005 0.50005 0 0 0 5.5 14 A 0.50005 0.50005 0 0 0 5.6191406 13.988281 C 6.5581689 13.954838 7.4007001 13.542904 8.0097656 12.890625 C 8.6285119 13.546109 9.4762744 13.976232 10.429688 13.996094 A 0.50005 0.50005 0 0 0 10.5 14 A 0.50005 0.50005 0 0 0 10.619141 13.988281 C 12.465844 13.922512 13.936055 12.375209 13.990234 10.480469 A 0.50005 0.50005 0 0 0 14 10.375 A 0.50005 0.50005 0 0 0 13.992188 10.275391 C 13.954188 9.1504762 13.298484 8.3214588 12.457031 8.0957031 C 11.823654 7.9257725 11.120031 8.1086564 10.580078 8.5996094 C 10.505832 8.505249 10.205232 8.1083592 9.8378906 7.203125 C 9.55829 6.5141091 9.2858872 5.5611955 9.1308594 4.3789062 C 9.9440455 5.1946404 11.320445 5.9841299 13.445312 5.9980469 A 0.50090359 0.50090359 0 0 0 13.5 6 A 0.50090359 0.50090359 0 0 0 13.509766 6 A 0.50005 0.50005 0 0 0 13.550781 5.9980469 A 0.50090359 0.50090359 0 0 0 13.574219 5.9960938 A 0.50005 0.50005 0 0 0 13.705078 5.9570312 A 0.50005 0.50005 0 0 0 13.916016 5.2109375 C 13.103099 3.334629 11.726052 2.4805849 10.572266 2.1582031 C 9.9848577 1.9940746 9.4439686 1.9555499 9.0507812 1.9589844 z M 9.2792969 2.9707031 C 9.567657 2.9815172 9.9102511 3.0133823 10.302734 3.1230469 C 11.094372 3.3442395 11.980478 3.8266099 12.65625 4.9472656 C 11.233556 4.781393 10.360985 4.2125403 9.8105469 3.6503906 C 9.5654081 3.4000362 9.4037695 3.1724315 9.2792969 2.9707031 z M 8.0566406 3.6289062 C 8.1774306 5.3173251 8.5342588 6.6469932 8.9121094 7.578125 C 8.9860739 7.7603946 9.0593784 7.9058183 9.1328125 8.0605469 C 8.7342235 8.0362196 8.3405322 8.1336323 8 8.3476562 C 7.8312777 8.2363645 7.65001 8.1474779 7.4570312 8.0957031 C 6.9873199 7.969683 6.481054 8.0475961 6.0292969 8.2910156 C 6.0978571 7.7133794 6.4507616 5.4522968 8.0566406 3.6289062 z M 9.2148438 9.0273438 C 9.4909661 9.0787567 9.7692105 9.2681771 9.9960938 9.6367188 A 0.50005 0.50005 0 0 0 10.488281 10.029297 A 0.50005 0.50005 0 0 0 10.494141 10.029297 A 0.50005 0.50005 0 0 0 10.519531 10.027344 A 0.50005 0.50005 0 0 0 10.998047 9.65625 C 11.341593 9.092496 11.805967 8.9550403 12.199219 9.0605469 C 12.613659 9.171738 13 9.5520833 13 10.375 C 13 11.841633 11.875568 13 10.5 13 C 9.7277269 13 9.0457706 12.63178 8.5839844 12.050781 C 8.8411998 11.546051 9 10.980914 9 10.375 C 9 9.8943328 8.8818962 9.4689705 8.6894531 9.1132812 C 8.8561871 9.037951 9.0317301 8.9932487 9.2148438 9.0273438 z M 4.1230469 9.0292969 C 4.4297132 9.0508538 4.7457688 9.2388715 4.9980469 9.6484375 C 4.9988533 9.6497467 4.9991949 9.6510297 5 9.6523438 A 0.50005 0.50005 0 0 0 5.4882812 10.029297 A 0.50005 0.50005 0 0 0 5.4941406 10.029297 A 0.50005 0.50005 0 0 0 5.5195312 10.027344 A 0.50005 0.50005 0 0 0 5.9980469 9.65625 C 6.3415936 9.092496 6.8059669 8.9550403 7.1992188 9.0605469 C 7.6136586 9.171738 8 9.5520833 8 10.375 C 8 11.841633 6.8755677 13 5.5 13 C 4.1244323 13 3 11.841633 3 10.375 C 3 9.5520833 3.3863414 9.171738 3.8007812 9.0605469 C 3.9043913 9.0327491 4.0126456 9.0215363 4.1230469 9.0292969 z"></path>
</svg>