<svg xmlns="http://www.w3.org/2000/svg" viewBox="0 0 16 16">
    <path d="M 9.484375 1 A 0.50005 0.50005 0 0 0 9.2519531 1.0664062 C 9.2519531 1.0664062 7.4959281 2.1069183 7.0878906 4.1699219 C 4.2195379 5.3613422 1.1640625 8.1308594 1.1640625 8.1308594 A 0.50005 0.50005 0 1 0 1.8359375 8.8691406 C 1.8359375 8.8691406 5.0749602 5.966012 7.6796875 4.9667969 A 0.50005 0.50005 0 0 0 7.9960938 4.5625 C 8.1109451 3.6436889 8.5696226 2.9974806 9 2.5585938 L 9 4.625 A 0.50005 0.50005 0 0 0 9.2421875 5.0546875 L 10.992188 6.1035156 L 11.427734 6.9726562 A 0.50005 0.50005 0 0 0 11.564453 7.1425781 C 11.564453 7.1425781 12.215243 7.658707 12.863281 8.2089844 C 12.913487 8.2516163 12.95011 8.2872368 13 8.3300781 L 13 9 C 13 9.4029048 13.242357 9.7459717 13.585938 9.9042969 C 13.409631 10.204002 13.207589 10.513642 13.013672 10.724609 C 12.768592 10.991389 12.399706 11.072202 12.064453 10.935547 C 11.620776 10.754369 10.92383 10.428336 10.169922 10.207031 C 9.4160136 9.9857264 8.5777084 9.8437655 7.8085938 10.162109 A 0.50005 0.50005 0 0 0 7.8066406 10.164062 C 6.7479297 10.610105 6.3560079 11.76515 6.1660156 12.714844 C 5.9760233 13.664537 6 14.513672 6 14.513672 A 0.50018689 0.50018689 0 1 0 7 14.486328 C 7 14.486328 6.982227 13.731213 7.1464844 12.910156 C 7.3105038 12.090291 7.6683538 11.310109 8.1914062 11.087891 C 8.6012917 10.918235 9.23308 10.973566 9.8886719 11.166016 C 10.544264 11.358461 11.196218 11.661506 11.685547 11.861328 C 12.400294 12.152673 13.22708 11.969611 13.75 11.400391 C 14.088322 11.032319 14.377022 10.568156 14.597656 10.160156 C 14.707973 9.9561564 14.799522 9.7690083 14.867188 9.609375 C 14.901018 9.529558 14.928572 9.4565531 14.951172 9.3867188 C 14.973775 9.3168754 15 9.2740082 15 9.125 C 15 8.919464 14.936982 8.8549846 14.896484 8.7890625 C 14.855987 8.7231404 14.815398 8.6714413 14.769531 8.6171875 C 14.677798 8.5086799 14.56555 8.3943836 14.435547 8.2695312 C 14.175541 8.0198268 13.843949 7.7293769 13.511719 7.4472656 C 12.891303 6.9204441 12.352548 6.4926037 12.273438 6.4296875 L 11.822266 5.5273438 A 0.50005 0.50005 0 0 0 11.632812 5.3203125 L 10 4.3417969 L 10 1.5 A 0.50005 0.50005 0 0 0 9.484375 1 z M 10.5 7 A 0.5 0.5 0 0 0 10 7.5 A 0.5 0.5 0 0 0 10.5 8 A 0.5 0.5 0 0 0 11 7.5 A 0.5 0.5 0 0 0 10.5 7 z"></path>
</svg>