<svg xmlns="http://www.w3.org/2000/svg" viewBox="0 0 16 16">
    <path d="M 5.0859375 1.0117188 C 4.8619375 0.99271875 4.6940625 0.99853125 4.4140625 1.0195312 L 4.1738281 1.0585938 L 3.8085938 1.140625 C 2.9275938 1.393625 2.1847031 1.977125 1.7207031 2.703125 C 1.3657031 3.249125 1.1528906 3.8638906 1.0878906 4.4628906 C 1.0338906 4.7258906 1 4.99 1 5.25 C 1 6.605 1.4144219 7.9355469 2.1074219 8.8105469 C 2.2064219 8.9345469 2.3539531 9 2.5019531 9 C 2.6099531 9 2.7185469 8.9655781 2.8105469 8.8925781 C 3.0265469 8.7205781 3.0635781 8.4064531 2.8925781 8.1894531 C 2.4605781 7.6464531 2 6.588 2 5.25 C 2 5.179 2.0145313 5.1071563 2.0195312 5.0351562 C 2.1135312 4.4861562 2.4009219 4.0433906 2.7949219 3.6503906 C 3.1929219 3.2383906 3.7273438 3.0219531 4.1523438 3.0019531 C 4.1963438 3.0039531 4.2333438 3.003 4.2773438 3 L 4.5234375 3.0117188 C 4.5634375 3.0307187 4.7140156 3.0421719 4.7910156 3.0761719 C 4.9780156 3.1301719 5.1335781 3.2203594 5.2675781 3.3183594 C 5.3248098 3.3590575 5.3626808 3.4066088 5.4121094 3.4511719 C 5.4058267 3.458102 5.3988432 3.4637181 5.3925781 3.4707031 C 4.8870464 3.7322883 4.2047847 4 3.5 4 C 3.324 4 3.1613125 4.0931406 3.0703125 4.2441406 C 2.9803125 4.3961406 2.9765469 4.5832812 3.0605469 4.7382812 C 3.2643329 5.1141533 3.6522006 5.4992588 4.1425781 5.8222656 C 4.0959729 6.0055793 4.0565265 6.195036 4.0253906 6.3925781 C 3.9083685 7.1381012 4.2070374 7.8259811 4.6171875 8.3554688 C 5.1176844 9.001717 5.4991045 10.194474 5.7148438 11.207031 C 5.9305829 12.219588 6.0019531 13.042969 6.0019531 13.042969 A 0.50005 0.50005 0 0 0 6.1171875 13.322266 C 6.1171875 13.322266 6.3051503 13.532874 6.6132812 13.693359 C 6.9214122 13.853844 7.3828395 14 8 14 C 8.6171605 14 9.0785878 13.853844 9.3867188 13.693359 C 9.6948497 13.532874 9.8828125 13.322266 9.8828125 13.322266 A 0.50005 0.50005 0 0 0 9.9980469 13.042969 C 9.9980469 13.042969 10.069417 12.219588 10.285156 11.207031 C 10.500895 10.194474 10.882316 9.0017169 11.382812 8.3554688 C 11.792964 7.8259812 12.091632 7.1381012 11.974609 6.3925781 C 11.943474 6.195036 11.904027 6.0055793 11.857422 5.8222656 C 12.347799 5.4992588 12.735667 5.1141533 12.939453 4.7382812 C 13.023453 4.5832813 13.019687 4.3951406 12.929688 4.2441406 C 12.838688 4.0931406 12.676 4 12.5 4 C 11.795215 4 11.112954 3.7322883 10.607422 3.4707031 C 10.601157 3.4637181 10.594173 3.458102 10.587891 3.4511719 C 10.637319 3.4066088 10.67519 3.3590575 10.732422 3.3183594 C 10.867422 3.2203594 11.021984 3.132125 11.208984 3.078125 C 11.285984 3.044125 11.436562 3.0317187 11.476562 3.0117188 L 11.722656 3 C 11.766656 3.003 11.803656 3.0039531 11.847656 3.0019531 C 12.272656 3.0229531 12.808078 3.2383906 13.205078 3.6503906 C 13.600078 4.0433906 13.886469 4.4861562 13.980469 5.0351562 C 13.985469 5.1071563 14 5.179 14 5.25 C 14 6.588 13.539422 7.6464531 13.107422 8.1894531 C 12.935422 8.4054531 12.973453 8.719625 13.189453 8.890625 C 13.281453 8.964625 13.391 9 13.5 9 C 13.647 9 13.793578 8.9345469 13.892578 8.8105469 C 14.585578 7.9355469 15 6.605 15 5.25 C 15 4.99 14.966109 4.7258906 14.912109 4.4628906 C 14.847109 3.8638906 14.635297 3.249125 14.279297 2.703125 C 13.815297 1.977125 13.071406 1.393625 12.191406 1.140625 L 11.828125 1.0585938 L 11.585938 1.0195312 C 11.305938 0.99853125 11.140016 0.99271875 10.916016 1.0117188 C 10.496016 1.0387187 10.099766 1.1489687 9.7597656 1.2929688 C 9.2139782 1.5238178 8.8455662 1.8182029 8.5585938 2.0839844 C 8.3641263 2.031372 8.1755779 2 8 2 C 7.8244221 2 7.6358737 2.031372 7.4414062 2.0839844 C 7.1543943 1.8185841 6.7883197 1.5239636 6.2421875 1.2929688 C 5.9021875 1.1489687 5.5059375 1.0387187 5.0859375 1.0117188 z M 8 3 C 8.1627457 3 8.9007686 3.2247454 9.5390625 3.7949219 C 10.177356 4.3650983 10.781185 5.2472949 10.986328 6.5488281 C 11.047308 6.9373051 10.889648 7.3576751 10.591797 7.7421875 C 9.8972937 8.6389392 9.5361514 9.9208539 9.3066406 10.998047 C 9.103672 11.950666 9.0534817 12.558356 9.0371094 12.730469 C 9.0138744 12.750419 9.0247864 12.754061 8.9238281 12.806641 C 8.7519591 12.896158 8.4628395 13 8 13 C 7.5371605 13 7.2480409 12.896156 7.0761719 12.806641 C 6.9752139 12.754058 6.9861258 12.750417 6.9628906 12.730469 C 6.9465183 12.558356 6.896328 11.950666 6.6933594 10.998047 C 6.4638486 9.9208539 6.1027062 8.6389392 5.4082031 7.7421875 C 5.1103532 7.3576751 4.952694 6.9373051 5.0136719 6.5488281 C 5.2188148 5.2472949 5.8226436 4.3650983 6.4609375 3.7949219 C 7.0992314 3.2247454 7.8372543 3 8 3 z M 6.5 7 A 0.5 0.5 0 0 0 6 7.5 A 0.5 0.5 0 0 0 6.5 8 A 0.5 0.5 0 0 0 7 7.5 A 0.5 0.5 0 0 0 6.5 7 z M 9.5 7 A 0.5 0.5 0 0 0 9 7.5 A 0.5 0.5 0 0 0 9.5 8 A 0.5 0.5 0 0 0 10 7.5 A 0.5 0.5 0 0 0 9.5 7 z"></path>
</svg>