<svg xmlns="http://www.w3.org/2000/svg" viewBox="0 0 16 16">
    <path d="M 12.5 1 C 11.34 1 10.584672 1.6539531 10.263672 2.0019531 C 10.170672 2.0049531 10.091 2.0233437 10 2.0273438 L 10 1.0351562 C 1.898 1.4221563 1 10.231 1 14 L 2 14 L 2.5 14 L 3 14 C 3 10.692 3.731 3 10.5 3 C 10.661 3 10.814203 2.9190625 10.908203 2.7890625 C 10.927203 2.7620625 11.304 2.2484531 12 2.0644531 L 12 3.5878906 C 12 3.6598906 12.015922 3.7299219 12.044922 3.7949219 C 12.971922 5.8189219 13.956953 8.1380781 14.001953 8.4550781 C 13.984953 8.6180781 13.899031 9 13.457031 9 C 13.080031 9 12.897484 8.3760469 12.896484 8.3730469 C 12.841484 8.1620469 12.657453 8.012 12.439453 8 C 12.422453 8 10.680078 7.8899688 9.9550781 6.2929688 C 9.8970781 6.1669688 9.78925 6.0693906 9.65625 6.0253906 C 9.52325 5.9813906 9.3798125 5.9955 9.2578125 6.0625 C 7.1108125 7.2475 8.1963594 9.509125 9.0683594 11.328125 C 9.5263594 12.285125 10 13.275 10 14 L 11 14 C 11 13.047 10.476703 11.953484 9.9707031 10.896484 C 9.1347031 9.1534844 8.6498906 7.9672344 9.3378906 7.2402344 C 10.152891 8.4802344 11.437875 8.8480781 12.046875 8.9550781 C 12.264875 9.4390781 12.714031 10 13.457031 10 C 14.504031 10 14.953 9.126 15 8.5 C 15 7.94 13.768 5.1585156 13 3.4785156 L 13 1.5 C 13 1.224 12.776 1 12.5 1 z M 11.5 5 A 0.5 0.5 0 0 0 11 5.5 A 0.5 0.5 0 0 0 11.5 6 A 0.5 0.5 0 0 0 12 5.5 A 0.5 0.5 0 0 0 11.5 5 z"></path>
</svg>