<svg xmlns="http://www.w3.org/2000/svg" viewBox="0 0 16 16">
    <path style="line-height:normal;text-indent:0;text-align:start;text-decoration-line:none;text-decoration-style:solid;text-decoration-color:#000;text-transform:none;block-progression:tb;isolation:auto;mix-blend-mode:normal" d="M 6 1 L 6 2 L 6.5 2 C 7.0802759 2 7.2346649 2.2182311 7.3632812 2.4746094 C 7.4918977 2.7309877 7.5 3.0019531 7.5 3.0019531 L 7.7773438 3.0078125 C 5.7716603 3.0471603 4.3138516 3.6025732 3.3691406 4.546875 C 2.4502769 5.4653407 2.0854155 6.7153478 2.0390625 8.0292969 C 1.4580065 8.3023789 1 8.8042038 1 9.4785156 C 1 10.421344 1.8010628 11.173828 2.75 11.173828 C 2.764033 11.173828 2.7733134 11.168369 2.7871094 11.167969 C 3.4545759 13.373648 5.5103833 15 8 15 C 10.489617 15 12.545425 13.373607 13.212891 11.167969 C 13.226721 11.168347 13.23593 11.173828 13.25 11.173828 C 14.198454 11.173828 15 10.421916 15 9.4785156 C 14.999999 8.8041628 14.541992 8.3023789 13.960938 8.0292969 C 13.914583 6.7153478 13.549723 5.4653407 12.630859 4.546875 C 11.730299 3.6467041 10.36274 3.0993256 8.5 3.015625 C 8.5006305 3.0066463 8.520734 2.7400785 8.65625 2.4804688 C 8.7940573 2.2164703 8.9573375 2 9.5 2 L 10 2 L 10 1 L 9.5 1 C 8.7809695 1 8.3191894 1.3628228 8.0117188 1.7519531 C 7.7039689 1.3604899 7.2355413 1 6.5 1 L 6 1 z M 8 4 C 9.9488905 4 11.172242 4.5026453 11.923828 5.2539062 C 12.675415 6.0051672 13 7.0522233 13 8.2832031 C 13 8.2078701 12.998047 8.2153076 12.998047 8.3066406 L 12.998047 8.7207031 L 13.404297 8.7988281 C 13.755984 8.8664516 14 9.1470689 14 9.4785156 C 14 9.8571152 13.681546 10.173828 13.25 10.173828 C 13.18662 10.173828 13.119013 10.162432 13.033203 10.138672 L 12.515625 9.9960938 L 12.410156 10.523438 C 12.016206 12.491404 10.20844 14 8 14 C 5.7915597 14 3.9837938 12.491405 3.5898438 10.523438 L 3.484375 9.9960938 L 2.9667969 10.138672 C 2.8817247 10.162219 2.8118907 10.173828 2.75 10.173828 C 2.3189372 10.173828 2 9.8556873 2 9.4785156 C 2 9.1470689 2.2440635 8.8664511 2.5957031 8.7988281 L 3.0019531 8.7207031 L 3.0019531 8.3066406 C 3.0019531 8.2153073 3 8.2078698 3 8.2832031 C 3 7.0522233 3.3245854 6.0051672 4.0761719 5.2539062 C 4.8277584 4.5026453 6.0511095 4 8 4 z M 6.46875 6 C 5.1163505 6 4 7.0882028 4 8.4296875 C 4 9.3593963 4.5869449 10.094263 5.3652344 10.5 C 5.3966623 11.095767 5.5672734 11.699164 5.9882812 12.164062 C 6.4453076 12.668736 7.1473563 13 8 13 C 8.8526437 13 9.5548522 12.668889 10.011719 12.164062 C 10.433012 11.698545 10.603241 11.094503 10.634766 10.498047 C 11.41246 10.092431 12 9.3590856 12 8.4296875 C 12 7.0889442 10.883956 6 9.53125 6 C 8.9343554 6 8.4255909 6.2577632 8 6.6074219 C 7.5744091 6.2577632 7.0656446 6 6.46875 6 z M 6.46875 7 C 6.9364092 7 7.3417865 7.2144631 7.6132812 7.546875 L 8 8.0195312 L 8.3867188 7.546875 C 8.6582135 7.2144631 9.0635908 7 9.53125 7 C 10.354544 7 11 7.6404308 11 8.4296875 C 11 9.0528378 10.592743 9.5724967 10.013672 9.7695312 L 9.65625 9.890625 L 9.6738281 10.269531 C 9.6798481 10.386898 9.6875 10.40909 9.6875 10.357422 C 9.6875 10.775994 9.5414151 11.191762 9.2695312 11.492188 C 8.9976475 11.792612 8.6063563 12 8 12 C 7.3936437 12 7.0024423 11.792515 6.7304688 11.492188 C 6.4584951 11.191859 6.3121075 10.777025 6.3125 10.359375 L 6.3125 10.357422 C 6.3125 10.400752 6.3164597 10.384113 6.3242188 10.283203 L 6.3535156 9.8964844 L 5.9863281 9.7714844 C 5.4076238 9.5746227 5 9.0528378 5 8.4296875 C 5 7.6391722 5.6451495 7 6.46875 7 z M 6.5 8 A 0.5 0.5 0 0 0 6 8.5 A 0.5 0.5 0 0 0 6.5 9 A 0.5 0.5 0 0 0 7 8.5 A 0.5 0.5 0 0 0 6.5 8 z M 9.5 8 A 0.5 0.5 0 0 0 9 8.5 A 0.5 0.5 0 0 0 9.5 9 A 0.5 0.5 0 0 0 10 8.5 A 0.5 0.5 0 0 0 9.5 8 z" font-weight="400" font-family="sans-serif" white-space="normal" overflow="visible"></path>
</svg>