<svg xmlns="http://www.w3.org/2000/svg" viewBox="0 0 16 16">
    <path style="line-height:normal;text-indent:0;text-align:start;text-decoration-line:none;text-decoration-style:solid;text-decoration-color:#000;text-transform:none;block-progression:tb;isolation:auto;mix-blend-mode:normal" d="M 7.5 1 C 5.020742 1 3 3.020742 3 5.5 C 3 6.5263889 3.3042515 7.1637333 3.5585938 7.640625 C 3.8129359 8.1175167 4 8.4150641 4 9.125 C 4 9.4534346 3.9107718 9.979355 3.6816406 10.359375 C 3.4525095 10.739395 3.1520897 11 2.5 11 C 2.2185314 11 2 10.781469 2 10.5 C 2 10.218531 2.2185314 10 2.5 10 A 0.50005 0.50005 0 1 0 2.5 9 C 1.6774686 9 1 9.6774686 1 10.5 C 1 11.322531 1.6774686 12 2.5 12 C 3.4729103 12 4.1724905 11.47973 4.5371094 10.875 C 4.9017282 10.27027 5 9.6075654 5 9.125 C 5 8.2099359 4.687064 7.6324833 4.4414062 7.171875 C 4.1957485 6.7112667 4 6.3486111 4 5.5 C 4 3.561258 5.561258 2 7.5 2 C 9.438742 2 11 3.561258 11 5.5 C 11 6.3486111 10.804252 6.7112667 10.558594 7.171875 C 10.312936 7.6324833 10 8.2099359 10 9.125 C 10 9.6075654 10.09827 10.27027 10.462891 10.875 C 10.827509 11.47973 11.52709 12 12.5 12 C 13.322531 12 14 11.322531 14 10.5 C 14 9.6774686 13.322531 9 12.5 9 A 0.50005 0.50005 0 1 0 12.5 10 C 12.781469 10 13 10.218531 13 10.5 C 13 10.781469 12.781469 11 12.5 11 C 11.84791 11 11.547491 10.739395 11.318359 10.359375 C 11.089228 9.979355 11 9.4534346 11 9.125 C 11 8.4150641 11.187064 8.1175167 11.441406 7.640625 C 11.695748 7.1637333 12 6.5263889 12 5.5 C 12 3.020742 9.979258 1 7.5 1 z M 6.5 4 A 0.5 1 0 0 0 6 5 A 0.5 1 0 0 0 6.5 6 A 0.5 1 0 0 0 7 5 A 0.5 1 0 0 0 6.5 4 z M 8.5 4 A 0.5 1 0 0 0 8 5 A 0.5 1 0 0 0 8.5 6 A 0.5 1 0 0 0 9 5 A 0.5 1 0 0 0 8.5 4 z M 6.4921875 8.9921875 A 0.50005 0.50005 0 0 0 6 9.5 C 6 10.510417 6.013172 11.484412 5.8203125 12.101562 C 5.7238828 12.410139 5.5924971 12.61591 5.40625 12.757812 C 5.2200029 12.899716 4.9528186 13 4.5 13 A 0.50005 0.50005 0 1 0 4.5 14 C 5.1096814 14 5.623747 13.850285 6.0117188 13.554688 C 6.3996904 13.259089 6.6354922 12.839861 6.7734375 12.398438 C 7.049328 11.515587 7 10.489583 7 9.5 A 0.50005 0.50005 0 0 0 6.4921875 8.9921875 z M 8.4921875 8.9921875 A 0.50005 0.50005 0 0 0 8 9.5 C 8 10.489583 7.950672 11.515588 8.2265625 12.398438 C 8.3645078 12.839861 8.6003096 13.25909 8.9882812 13.554688 C 9.376253 13.850284 9.8903186 14 10.5 14 A 0.50005 0.50005 0 1 0 10.5 13 C 10.047181 13 9.7799971 12.899715 9.59375 12.757812 C 9.4075029 12.615911 9.2761172 12.410139 9.1796875 12.101562 C 8.986828 11.484413 9 10.510417 9 9.5 A 0.50005 0.50005 0 0 0 8.4921875 8.9921875 z" font-weight="400" font-family="sans-serif" white-space="normal" overflow="visible"></path>
</svg>