<svg xmlns="http://www.w3.org/2000/svg" viewBox="0 0 16 16">
    <path d="M 2.4765625 0.99804688 A 0.50005 0.50005 0 0 0 2.34375 1.0253906 C 2.34375 1.0253906 1.9795589 1.1473172 1.6503906 1.46875 C 1.353898 1.7582751 1.0761469 2.2496343 1.0214844 2.9101562 C 1.0140125 2.9401226 1 2.9654576 1 3 C 1 3.0198392 1.0052681 3.0370544 1.0058594 3.0566406 C 1.0052301 3.0807105 1 3.1004935 1 3.125 A 0.50005 0.50005 0 0 0 1.0390625 3.3222656 C 1.0853032 3.589674 1.1832387 3.8266204 1.3164062 4.0351562 A 0.50005 0.50005 0 0 0 1.0039062 4.4433594 C 1.0039062 4.4433594 0.92278165 5.0611156 1.2070312 5.703125 C 1.4633175 6.2819758 2.0984128 6.8662177 3.1464844 6.9765625 C 3.0595142 7.4463687 3 7.945435 3 8.5 A 0.50005 0.50005 0 0 0 3.3144531 8.9648438 C 3.5527337 9.0595747 4.0293313 9.4582135 4.3847656 10.019531 C 4.7401999 10.580849 5 11.293048 5 12 A 0.50005 0.50005 0 0 0 5 12.021484 C 5 12.021484 5.033028 12.580208 5.4550781 13.074219 C 5.8771282 13.568234 6.6789149 14 8 14 C 9.3215431 14 10.122945 13.568337 10.544922 13.074219 C 10.966899 12.5801 11 12.021484 11 12.021484 A 0.50005 0.50005 0 0 0 11 12 C 11 11.293048 11.2598 10.580849 11.615234 10.019531 C 11.970669 9.4582135 12.447266 9.0595747 12.685547 8.9648438 A 0.50005 0.50005 0 0 0 13 8.5 C 13 7.945435 12.940486 7.4463687 12.853516 6.9765625 C 13.901587 6.8662177 14.536682 6.2819758 14.792969 5.703125 C 15.077218 5.0611156 14.996094 4.4433594 14.996094 4.4433594 A 0.50005 0.50005 0 0 0 14.685547 4.0351562 C 14.818638 3.8266204 14.914733 3.589674 14.960938 3.3222656 A 0.50005 0.50005 0 0 0 15 3.125 C 15 3.1004935 14.99477 3.0807105 14.994141 3.0566406 C 14.994731 3.0370544 15 3.0198392 15 3 C 15 2.9654576 14.985988 2.9401226 14.978516 2.9101562 C 14.923853 2.2496343 14.646103 1.7582751 14.349609 1.46875 C 14.020441 1.1473172 13.65625 1.0253906 13.65625 1.0253906 A 0.50005 0.50005 0 0 0 13.458984 0.99804688 A 0.50005 0.50005 0 0 0 13.34375 1.9746094 C 13.34375 1.9746094 13.479559 2.0167763 13.650391 2.1835938 C 13.776867 2.3070983 13.905431 2.4796706 13.964844 2.7714844 C 13.907902 3.06778 13.718063 3.5 13 3.5 C 11.667534 3.5 10.357885 2.8565871 9.6738281 2.5703125 C 8.79306 2.1197204 8.0761719 2.0058594 8.0761719 2.0058594 A 0.50005 0.50005 0 0 0 7.9765625 2 A 0.50005 0.50005 0 0 0 7.9238281 2.0058594 C 7.9238281 2.0058594 7.20694 2.1197204 6.3261719 2.5703125 C 5.6421151 2.8565871 4.3324658 3.5 3 3.5 C 2.281937 3.5 2.0920983 3.06778 2.0351562 2.7714844 C 2.0945688 2.4796706 2.2231325 2.3070983 2.3496094 2.1835938 C 2.5204411 2.0167765 2.65625 1.9746094 2.65625 1.9746094 A 0.50005 0.50005 0 0 0 2.4765625 0.99804688 z M 8 3.0292969 C 8.071523 3.0412649 8.9662066 3.1792952 9.9511719 3.9121094 C 10.950293 4.6554553 11.921568 5.9640107 11.96875 8.359375 C 11.538294 8.6359391 11.110746 8.9455127 10.769531 9.484375 C 10.556356 9.8210314 10.370861 10.201914 10.234375 10.611328 C 9.9653461 10.422138 9.6761494 10.283099 9.3925781 10.199219 C 8.6820832 9.9890541 8.0113202 9.9998851 8.0039062 10 L 7.9960938 10 C 7.9886798 9.9998851 7.3179168 9.9890541 6.6074219 10.199219 C 6.3238506 10.283099 6.0346542 10.422138 5.765625 10.611328 C 5.6291395 10.201914 5.4436443 9.8210314 5.2304688 9.484375 C 4.8892537 8.9455127 4.4617055 8.6359391 4.03125 8.359375 C 4.0784324 5.9640107 5.0497073 4.6554553 6.0488281 3.9121094 C 7.0337934 3.1792952 7.9284772 3.0412647 8 3.0292969 z M 2.0703125 5 L 3.8242188 5 C 3.6605302 5.3005538 3.5202442 5.6316484 3.3984375 5.9902344 C 2.5308207 5.962817 2.2728833 5.6397087 2.1210938 5.296875 C 2.0575035 5.1532494 2.0865717 5.1252724 2.0703125 5 z M 12.175781 5 C 12.459712 4.9988057 12.715346 5 13.25 5 L 13.929688 5 C 13.913427 5.1252724 13.942496 5.1532494 13.878906 5.296875 C 13.727115 5.6397087 13.469179 5.962817 12.601562 5.9902344 C 12.479756 5.6316484 12.33947 5.3005538 12.175781 5 z M 5 7 C 5.375 8.775 6 8.9960938 6 8.9960938 C 6 8.9960938 6.729 9.0790781 7 8.3300781 C 6.688 7.3870781 5 7 5 7 z M 11 7 C 11 7 9.312 7.3870781 9 8.3300781 C 9.271 9.0790781 10 8.9960938 10 8.9960938 C 10 8.9960938 10.625 8.775 11 7 z M 7.9960938 11 L 8 11 L 8.0039062 11 C 8.0039062 11 8.5718338 10.999776 9.1074219 11.158203 C 9.3752159 11.237413 9.621824 11.357052 9.7734375 11.494141 C 9.9220301 11.628501 9.9951225 11.754388 9.9980469 11.988281 C 9.9978586 12.002214 9.9933229 12.179711 9.7832031 12.425781 C 9.5646804 12.681659 9.1164569 13 8 13 C 6.8840851 13 6.4354968 12.68177 6.2167969 12.425781 C 6.0064818 12.179607 6.0021273 12.002207 6.0019531 11.988281 C 6.0048775 11.754388 6.0779662 11.628501 6.2265625 11.494141 C 6.378176 11.357052 6.6247841 11.237417 6.8925781 11.158203 C 7.4281662 10.999776 7.9960937 11 7.9960938 11 z"></path>
</svg>