<svg xmlns="http://www.w3.org/2000/svg" viewBox="0 0 16 16">
    <path d="M 3.484375 1 A 0.50005 0.50005 0 0 0 3.1074219 1.1894531 C 3.1074219 1.1894531 2 2.5181745 2 4.109375 C 2 5.6512918 3.0131355 6.5442409 3.5078125 6.8886719 C 2.5939652 7.7383889 2 8.859558 2 10.109375 C 2 12.877098 4.745849 15.009766 8 15.009766 C 11.254151 15.009766 14 12.877098 14 10.109375 C 14 8.859558 13.406034 7.7383886 12.492188 6.8886719 C 12.986865 6.5442409 14 5.6512918 14 4.109375 C 14 2.5181745 12.892578 1.1894531 12.892578 1.1894531 A 0.50005 0.50005 0 0 0 12.501953 1 A 0.50005 0.50005 0 0 0 12 1.5 C 12 2.116748 11.647354 2.4800589 11.228516 2.75 C 11.020514 2.8840574 10.812023 2.975586 10.654297 3.0351562 C 9.9452613 2.3991789 9.0201697 2 8 2 C 6.9798301 2 6.0547387 2.3991789 5.3457031 3.0351562 C 5.1879771 2.975586 4.9794864 2.8840574 4.7714844 2.75 C 4.3526464 2.4800589 4 2.116748 4 1.5 A 0.50005 0.50005 0 0 0 3.484375 1 z M 3.3867188 2.7558594 C 3.6234933 3.1167686 3.9304783 3.3977587 4.2285156 3.5898438 C 4.3738062 3.6834835 4.5184734 3.7611901 4.6542969 3.8261719 C 4.2434786 4.454058 4 5.1988793 4 6 L 4 6.0195312 C 3.6485937 5.7730721 3 5.180151 3 4.109375 C 3 3.6345517 3.1966081 3.1646907 3.3867188 2.7558594 z M 12.613281 2.7558594 C 12.803392 3.1646907 13 3.6345517 13 4.109375 C 13 5.180151 12.351406 5.7730721 12 6.0195312 L 12 6 C 12 5.1988793 11.756521 4.454058 11.345703 3.8261719 C 11.481527 3.7611901 11.626194 3.6834835 11.771484 3.5898438 C 12.069522 3.3977587 12.376507 3.1167686 12.613281 2.7558594 z M 8 3 C 8.7733813 3 9.4729025 3.3035388 10.005859 3.7871094 A 0.50005 0.50005 0 0 0 10.28125 4.0761719 C 10.722887 4.5988353 11 5.2649286 11 6 L 11 6.9921875 L 11.21875 7.1425781 C 11.367824 7.2438009 11.520704 7.3540592 11.677734 7.4785156 C 12.513463 8.1890554 13 9.1057919 13 10.109375 C 13 12.201652 10.821849 14.009766 8 14.009766 C 5.178151 14.009766 3 12.201652 3 10.109375 C 3 9.1130011 3.4838545 8.2044661 4.3085938 7.4960938 C 4.4551695 7.4104747 4.5984186 7.3296385 4.734375 7.2578125 L 5 7.1171875 L 5 6 C 5 5.2649286 5.2771134 4.5988353 5.71875 4.0761719 A 0.50005 0.50005 0 0 0 5.9941406 3.7871094 C 6.5270975 3.3035388 7.2266187 3 8 3 z M 6.5 7 A 0.5 0.5 0 0 0 6 7.5 A 0.5 0.5 0 0 0 6.5 8 A 0.5 0.5 0 0 0 7 7.5 A 0.5 0.5 0 0 0 6.5 7 z M 9.5 7 A 0.5 0.5 0 0 0 9 7.5 A 0.5 0.5 0 0 0 9.5 8 A 0.5 0.5 0 0 0 10 7.5 A 0.5 0.5 0 0 0 9.5 7 z M 8 9 C 6.9013528 9 6 9.9013528 6 11 C 6 12.098647 6.9013528 13 8 13 C 9.0986472 13 10 12.098647 10 11 C 10 9.9013528 9.0986472 9 8 9 z M 8 10 C 8.5582071 10 9 10.441793 9 11 C 9 11.558207 8.5582071 12 8 12 C 7.4417929 12 7 11.558207 7 11 C 7 10.441793 7.4417929 10 8 10 z"></path>
</svg>