<svg xmlns="http://www.w3.org/2000/svg" viewBox="0 0 16 16">
    <path style="line-height:normal;text-indent:0;text-align:start;text-decoration-line:none;text-decoration-style:solid;text-decoration-color:#000;text-transform:none;block-progression:tb;isolation:auto;mix-blend-mode:normal" d="M 14.490234 0.99609375 A 0.50005 0.50005 0 0 0 14.146484 1.1464844 L 13 2.2929688 L 13 1.5 A 0.50005 0.50005 0 0 0 12.484375 1 A 0.50005 0.50005 0 0 0 12.109375 1.1875 C 12.109375 1.1875 11.633249 1.7910946 11.304688 2.7519531 C 11.03319 2.1437391 10.747723 1.5328792 10.361328 1.1464844 A 0.50005 0.50005 0 0 0 10 1 A 0.50005 0.50005 0 0 0 9.6542969 1.1464844 C 9.3845533 1.416228 9.2986817 1.7304987 9.2148438 2.0742188 C 9.1310056 2.4179384 9.0795082 2.7941714 9.0449219 3.1503906 C 9.0007772 3.6050552 9.0074926 3.7644104 9.0019531 4.0117188 C 7.143515 4.0654902 5.0295565 4.5459631 3.1582031 6.3945312 A 0.50005 0.50005 0 0 0 3.1542969 6.3984375 C 1.7366781 7.8321657 1.0643314 9.1704607 1.0039062 10.414062 C 0.98571876 10.788381 1.0303503 11.145176 1.1171875 11.488281 A 0.50005 0.50005 0 0 0 1.1894531 11.757812 C 1.4186434 12.446174 1.8400738 13.063675 2.3691406 13.59375 C 2.8981082 14.12411 3.5132519 14.53968 4.1972656 14.779297 A 0.50005 0.50005 0 0 0 4.4746094 14.880859 C 4.7625096 14.956098 5.0615444 15.001846 5.375 15 C 6.6429915 14.99302 8.0240274 14.311113 9.5546875 12.777344 C 11.408343 10.920984 11.906504 8.583525 11.984375 6.9804688 C 12.231824 6.9778065 12.389819 6.9861925 12.84375 6.9472656 C 13.200195 6.9166986 13.577437 6.8698056 13.921875 6.7890625 C 14.266313 6.7083195 14.582052 6.6249793 14.853516 6.3535156 A 0.50005 0.50005 0 0 0 14.853516 5.6464844 C 14.635032 5.4279981 14.360041 5.2680156 14.035156 5.0917969 C 13.799907 4.9641964 13.539119 4.8437829 13.283203 4.7246094 C 14.290701 4.3856992 14.853516 3.8535156 14.853516 3.8535156 A 0.50005 0.50005 0 0 0 14.5 3 L 13.707031 3 L 14.853516 1.8535156 A 0.50005 0.50005 0 0 0 14.490234 0.99609375 z M 10.125 2.7109375 C 10.273813 2.9855551 10.380727 3.1201883 10.513672 3.4199219 C 10.800623 4.0668752 11.009457 4.6198283 11.019531 4.6464844 A 0.50005 0.50005 0 0 0 11.019531 4.6484375 A 0.50005 0.50005 0 0 0 11.376953 4.9902344 C 11.427081 5.0097279 11.949433 5.2122989 12.585938 5.4980469 C 12.844798 5.6142584 13.0991 5.7409674 13.341797 5.8652344 C 13.148237 5.8960964 12.962076 5.9336559 12.757812 5.9511719 C 12.134075 6.0046619 11.616632 5.9985494 11.564453 5.9980469 A 0.50005 0.50005 0 0 0 11.144531 6.1445312 A 0.50005 0.50005 0 0 0 11.087891 6.2109375 A 0.50005 0.50005 0 0 0 11.080078 6.2207031 A 0.50005 0.50005 0 0 0 11.076172 6.2285156 A 0.50005 0.50005 0 0 0 11.050781 6.2734375 A 0.50005 0.50005 0 0 0 11.03125 6.3183594 A 0.50005 0.50005 0 0 0 11.017578 6.3574219 A 0.50005 0.50005 0 0 0 11.015625 6.3671875 A 0.50005 0.50005 0 0 0 10.998047 6.4765625 C 10.985226 5.6755362 10.331303 5.0210519 9.53125 5.0039062 A 0.50005 0.50005 0 0 0 9.9765625 4.5 C 9.9765625 4.5 9.9774369 3.9028584 10.041016 3.2480469 C 10.059226 3.0604674 10.09578 2.8910457 10.125 2.7109375 z M 12.148438 3.8554688 A 0.50005 0.50005 0 0 0 12.171875 3.8769531 C 12.160765 3.8785731 12.153798 3.8812625 12.142578 3.8828125 C 12.144278 3.8728925 12.146636 3.8653327 12.148438 3.8554688 z M 5.2851562 6 L 5.5 6 C 5.7814686 6 6 6.2185314 6 6.5 L 6 7 L 5.625 7 A 0.50005 0.50005 0 0 0 5.5351562 7.0058594 C 5.5229358 7.005501 5.5123052 7 5.5 7 L 3.9804688 7 C 4.4090238 6.5930649 4.8443097 6.2618951 5.2851562 6 z M 6.90625 6 L 7.5 6 C 7.7814686 6 8 6.2185314 8 6.5 L 8 7 L 7.625 7 A 0.50005 0.50005 0 0 0 7.5488281 7.0058594 C 7.5322339 7.0053041 7.5167186 7 7.5 7 L 7 7 L 7 6.5 C 7 6.3243299 6.9628665 6.15725 6.90625 6 z M 8.90625 6 L 9.5 6 C 9.7814686 6 10 6.2185314 10 6.5 L 10 7.09375 C 9.84275 7.0371335 9.67567 7 9.5 7 L 9 7 L 9 6.5 C 9 6.3243299 8.9628665 6.15725 8.90625 6 z M 3.0859375 8 L 3.5 8 C 3.7814686 8 4 8.2185314 4 8.5 L 4 9 L 3.625 9 A 0.50005 0.50005 0 0 0 3.5488281 9.0058594 C 3.5322339 9.0053041 3.5167186 9 3.5 9 L 2.4335938 9 C 2.5949919 8.6839934 2.8182151 8.348507 3.0859375 8 z M 4.90625 8 L 5.5 8 C 5.7814686 8 6 8.2185314 6 8.5 L 6 9 L 5.75 9 A 0.50005 0.50005 0 0 0 5.6269531 9.0136719 C 5.5844262 9.0099756 5.5434135 9 5.5 9 L 5 9 L 5 8.5 C 5 8.3243299 4.9628665 8.15725 4.90625 8 z M 7 8 L 7.5 8 C 7.7814686 8 8 8.2185314 8 8.5 L 8 9 L 7.75 9 A 0.50005 0.50005 0 0 0 7.6269531 9.0136719 C 7.5844262 9.0099756 7.5434135 9 7.5 9 L 7 9 L 7 8.5 C 7 8.4832814 6.9946959 8.4677661 6.9941406 8.4511719 A 0.50005 0.50005 0 0 0 7 8.375 L 7 8 z M 9 8 L 9.5 8 C 9.7814686 8 10 8.2185314 10 8.5 L 10 9.09375 C 9.84275 9.0371335 9.67567 9 9.5 9 L 9 9 L 9 8.5 C 9 8.4870319 8.9945382 8.4757646 8.9941406 8.4628906 A 0.50005 0.50005 0 0 0 9 8.375 L 9 8 z M 2.0820312 10 L 3.5 10 C 3.7814686 10 4 10.218531 4 10.5 L 4 11 L 3.75 11 A 0.50005 0.50005 0 0 0 3.6035156 11.019531 C 3.6035156 11.019531 3.6015625 11.019531 3.6015625 11.019531 C 3.5665689 11.01661 3.5357141 11 3.5 11 L 2.0390625 11 C 2.012854 10.824787 1.9929407 10.648374 2.0019531 10.462891 C 2.0090641 10.316541 2.0499108 10.15665 2.0820312 10 z M 5 10 L 5.5 10 C 5.7814686 10 6 10.218531 6 10.5 L 6 11 L 5.75 11 A 0.50005 0.50005 0 0 0 5.6035156 11.019531 C 5.6028663 11.019476 5.602212 11.019585 5.6015625 11.019531 C 5.5665689 11.01661 5.5357141 11 5.5 11 L 5 11 L 5 10.5 C 5 10.483281 4.9946959 10.467766 4.9941406 10.451172 A 0.50005 0.50005 0 0 0 5 10.375 L 5 10 z M 7 10 L 7.5 10 C 7.7814686 10 8 10.218531 8 10.5 L 8 11.09375 C 7.84275 11.037133 7.6756701 11 7.5 11 L 7 11 L 7 10.5 C 7 10.483281 6.9946959 10.467766 6.9941406 10.451172 A 0.50005 0.50005 0 0 0 7 10.375 L 7 10 z M 9 10 L 9.5 10 C 9.7814686 10 10 10.218531 10 10.5 L 10 10.517578 C 9.7377237 10.995261 9.4077836 11.460728 9 11.898438 L 9 10.5 C 9 10.483281 8.9946959 10.467766 8.9941406 10.451172 A 0.50005 0.50005 0 0 0 9 10.375 L 9 10 z M 2.4003906 12 L 3.5 12 C 3.7814686 12 4 12.218531 4 12.5 L 4 13.603516 C 3.6825755 13.418974 3.3749349 13.186268 3.0761719 12.886719 C 2.79361 12.603618 2.5765868 12.306706 2.4003906 12 z M 5 12 L 5.5 12 C 5.7814686 12 6 12.218531 6 12.5 L 6 13.910156 C 5.7812632 13.961439 5.5679423 13.998916 5.3710938 14 A 0.50005 0.50005 0 0 0 5.3691406 14 C 5.242082 14.000748 5.1222186 13.974457 5 13.957031 L 5 12.5 C 5 12.483281 4.9946959 12.467766 4.9941406 12.451172 A 0.50005 0.50005 0 0 0 5 12.375 L 5 12 z M 7 12 L 7.5 12 C 7.7814686 12 8 12.218531 8 12.5 L 8 12.826172 C 7.6483408 13.110423 7.3134914 13.344062 7 13.515625 L 7 12.5 C 7 12.483281 6.9946959 12.467766 6.9941406 12.451172 A 0.50005 0.50005 0 0 0 7 12.375 L 7 12 z"></path>
</svg>