<svg xmlns="http://www.w3.org/2000/svg" viewBox="0 0 16 16">
    <path style="line-height:normal;text-indent:0;text-align:start;text-decoration-line:none;text-decoration-style:solid;text-decoration-color:#000;text-transform:none;block-progression:tb;isolation:auto;mix-blend-mode:normal" d="M 5.6230469 2 A 0.50005 0.50005 0 0 0 5.1445312 2.3632812 L 4.59375 4.3027344 A 0.50005 0.50005 0 0 0 4.5585938 4.4238281 L 2.0195312 13.363281 A 0.50005 0.50005 0 0 0 2.6269531 13.984375 L 13.626953 11.109375 A 0.50005 0.50005 0 0 0 14 10.607422 C 14 10.607422 13.9375 8.656883 12.865234 6.6113281 C 11.792968 4.5657732 9.6446891 2.3925296 5.6738281 2.0019531 A 0.50005 0.50005 0 0 0 5.6230469 2 z M 5.9785156 3.0859375 C 9.3324319 3.5501932 11.0596 5.3231636 11.978516 7.0761719 C 12.766907 8.580181 12.907343 9.7867799 12.947266 10.251953 L 11.925781 10.519531 C 11.836243 9.9018585 11.626687 8.902259 11.060547 7.8222656 C 10.228936 6.2358488 8.5882143 4.5672345 5.6914062 4.0957031 L 5.9785156 3.0859375 z M 5.4179688 5.0625 C 8.0917505 5.4517156 9.4395495 6.8826426 10.175781 8.2871094 C 10.711263 9.3086164 10.891363 10.261304 10.957031 10.771484 L 9.9980469 11.021484 A 1 1 0 0 0 10 11 A 1 1 0 0 0 9 10 A 1 1 0 0 0 8 11 A 1 1 0 0 0 8.140625 11.507812 L 3.2207031 12.794922 L 3.7792969 10.826172 C 3.8493675 10.847118 3.9129239 10.875 4 10.875 C 4.552 10.875 5 10.427 5 9.875 C 5 9.4354003 4.7109176 9.0733906 4.3164062 8.9394531 L 5.4179688 5.0625 z M 7 7 A 1 1 0 0 0 6 8 A 1 1 0 0 0 7 9 A 1 1 0 0 0 8 8 A 1 1 0 0 0 7 7 z" font-weight="400" font-family="sans-serif" white-space="normal" overflow="visible"></path>
</svg>