<svg xmlns="http://www.w3.org/2000/svg" viewBox="0 0 16 16">
    <path d="M 7.4707031 0.99609375 A 0.50005 0.50005 0 0 0 7.1289062 1.8339844 C 8.7320551 3.6169025 8.9542882 6.4800254 8.984375 7.0371094 C 8.916914 7.049228 8.8461583 7.054402 8.7773438 7.0644531 C 8.5944066 6.5002761 8.2749734 5.5073298 7.6894531 4.3144531 C 7.0195583 2.9496808 6.1800158 1.5306415 4.9179688 1.0703125 A 0.50005 0.50005 0 0 0 4.7207031 1.0410156 A 0.50005 0.50005 0 0 0 4.5664062 1.0722656 C 4.318219 1.1674041 4.1585881 1.3889053 4.0878906 1.578125 C 4.0171932 1.7673447 4.0039062 1.946766 4.0039062 2.125 C 4.0039062 3.4667413 4.635592 4.8497143 5.3105469 6.0078125 C 5.8864793 6.9960063 6.408525 7.6456178 6.7519531 8.0761719 C 5.7097764 8.995491 5.1487194 10.074189 5.0917969 10.210938 C 4.974893 10.295718 4.006213 10.98136 3.0996094 12.201172 A 0.50005 0.50005 0 1 0 3.9003906 12.798828 C 4.7524312 11.652429 5.7910156 10.90625 5.7910156 10.90625 A 0.50005 0.50005 0 0 0 5.9609375 10.691406 C 5.9609375 10.691406 6.5675185 9.2923709 7.671875 8.5234375 A 0.50005 0.50005 0 0 0 7.7734375 7.796875 C 7.5145142 7.4822279 6.8080764 6.5888081 6.1757812 5.5039062 C 5.6126145 4.5376159 5.2331376 3.4416191 5.1328125 2.4941406 C 5.710011 2.9991265 6.3174146 3.785063 6.7929688 4.7539062 C 7.4235739 6.038634 7.8562736 7.3596151 7.9804688 7.7578125 A 0.50005 0.50005 0 0 0 8.5878906 8.0917969 C 8.8022139 8.0341276 9.0188221 8 9.25 8 C 10.56834 8 11.381252 8.334879 11.931641 8.8242188 C 12.482029 9.3135585 12.792704 9.9959453 12.976562 10.777344 C 13.12603 11.413084 12.656131 12 12 12 L 10.5 12 C 9.1250151 12 8 13.125015 8 14.5 A 0.50005 0.50005 0 1 0 9 14.5 C 9 13.664985 9.6649849 13 10.5 13 L 12 13 C 13.275869 13 14.243705 11.791134 13.951172 10.546875 C 13.73903 9.6452732 13.350314 8.7470821 12.595703 8.0761719 C 11.97449 7.523863 11.105901 7.1670955 9.9902344 7.0527344 C 9.9788679 6.549259 9.8381336 3.3535982 7.8710938 1.1660156 A 0.50005 0.50005 0 0 0 7.4707031 0.99609375 z M 10.5 9 A 0.5 0.5 0 0 0 10 9.5 A 0.5 0.5 0 0 0 10.5 10 A 0.5 0.5 0 0 0 11 9.5 A 0.5 0.5 0 0 0 10.5 9 z"></path>
</svg>