<svg xmlns="http://www.w3.org/2000/svg" viewBox="0 0 16 16">
    <path d="M 4.0332031 1.0058594 C 3.7133492 0.99529791 3.3880513 1.0845141 3.109375 1.2890625 A 0.50005 0.50005 0 0 0 3.109375 1.2910156 C 2.5328225 1.7153911 2 2.5234787 2 3.7714844 C 2 4.7129332 2.4793388 5.3755005 2.9355469 5.7460938 C 3.1803449 5.9449514 3.4124855 6.0676834 3.5898438 6.1464844 C 3.2696605 6.692651 3 7.4581727 3 8.4980469 C 3 8.6789724 3.0224609 8.8476072 3.0546875 9 L 1 9 L 1 10 L 5 10 C 5 10.02101 4.9856006 10.338971 5.0097656 10.710938 C 5.0154043 10.79775 5.0325103 10.903753 5.0429688 11 L 2 11 L 2 12 L 5.25 12 C 5.2533409 12.010032 5.2543816 12.019257 5.2578125 12.029297 C 5.4209898 12.506831 5.6911083 13.001757 6.1425781 13.380859 C 6.5940436 13.759961 7.2234293 14 8 14 C 8.7766014 14 9.4059622 13.758097 9.8574219 13.378906 C 10.308882 12.999715 10.579017 12.50688 10.742188 12.029297 C 10.745617 12.019255 10.746659 12.010033 10.75 12 L 14 12 L 14 11 L 10.957031 11 C 10.96749 10.903759 10.984596 10.797739 10.990234 10.710938 C 11.014395 10.339018 11 10.020575 11 10 L 15 10 L 15 9 L 12.945312 9 C 12.97754 8.8476072 13 8.6789724 13 8.4980469 C 13 7.4581727 12.730339 6.692651 12.410156 6.1464844 C 12.587514 6.0676834 12.819655 5.9449514 13.064453 5.7460938 C 13.520661 5.3755007 14 4.7129332 14 3.7714844 C 14 2.5234787 13.467871 1.7146595 12.890625 1.2910156 C 12.61208 1.0865634 12.286696 0.99592071 11.966797 1.0058594 C 11.860164 1.0091723 11.75373 1.0236503 11.650391 1.0488281 C 11.237032 1.1495396 10.865559 1.4204842 10.660156 1.8320312 L 10.183594 2.7851562 C 9.6520167 2.3357235 8.9444598 2 8.0371094 2 C 7.1046975 2 6.3750153 2.3502478 5.8300781 2.8164062 L 5.3398438 1.8320312 C 5.1344946 1.4205915 4.7629378 1.1498485 4.3496094 1.0488281 C 4.2462773 1.023573 4.1398211 1.0093799 4.0332031 1.0058594 z M 11.935547 2 C 11.987626 1.993178 12.040775 1.9951828 12.09375 2.0058594 C 12.164383 2.0200948 12.234525 2.0504579 12.298828 2.0976562 C 12.653582 2.3580124 13 2.78549 13 3.7714844 C 13 4.3930356 12.729339 4.7320462 12.435547 4.9707031 C 12.141755 5.2093601 11.859375 5.2910156 11.859375 5.2910156 A 0.50062522 0.50062522 0 0 0 11.738281 5.3457031 C 11.679438 5.3044256 11.614283 5.2561251 11.572266 5.2285156 C 11.543235 5.0770413 11.449468 4.4867365 10.996094 3.7382812 C 10.965879 3.6884004 10.918187 3.6399514 10.884766 3.5898438 A 0.50005852 0.50005852 0 0 0 10.947266 3.4960938 L 11.554688 2.2792969 C 11.635234 2.1179123 11.779308 2.0204661 11.935547 2 z M 3.90625 2.0039062 C 4.1180746 1.961735 4.3378363 2.0639564 4.4453125 2.2792969 L 5.0527344 3.4960938 A 0.50005817 0.50005817 0 0 0 5.1347656 3.6152344 C 5.1083664 3.6542009 5.0693897 3.6916599 5.0449219 3.7304688 C 4.5717131 4.4810326 4.4608215 5.0819515 4.4296875 5.2265625 C 4.3876142 5.2541622 4.3213211 5.3018417 4.2617188 5.34375 A 0.50062522 0.50062522 0 0 0 4.140625 5.2910156 C 4.140625 5.2910156 3.858245 5.2093596 3.5644531 4.9707031 C 3.2706612 4.7320462 3 4.3930356 3 3.7714844 C 3 2.78549 3.3457244 2.3573308 3.7011719 2.0957031 C 3.7653877 2.0485687 3.8356418 2.0179633 3.90625 2.0039062 z M 8.0371094 3 C 9.1452504 3 9.7422516 3.5982027 10.140625 4.2558594 C 10.538998 4.913516 10.65625 5.578125 10.65625 5.578125 L 10.697266 5.8144531 L 10.910156 5.9316406 C 10.910156 5.9316406 11.138293 6.0486149 11.419922 6.4394531 C 11.701547 6.8302913 12 7.4648846 12 8.4980469 C 12 8.6919817 11.954721 8.8674849 11.908203 9 L 10.5 9 A 0.50005 0.50005 0 0 0 10 9.5 L 10 10 C 10 10.135425 10.012557 10.332902 9.9921875 10.646484 C 9.9718165 10.960067 9.9173775 11.346662 9.7949219 11.705078 C 9.672464 12.063495 9.4866651 12.384972 9.2148438 12.613281 C 8.943022 12.84159 8.5808986 13 8 13 C 7.4190707 13 7.0569677 12.841523 6.7851562 12.613281 C 6.5133449 12.38504 6.3275258 12.063419 6.2050781 11.705078 C 6.0826304 11.346738 6.0281835 10.960112 6.0078125 10.646484 C 5.9874415 10.332857 6 10.135492 6 10 L 6 9.5 A 0.50005 0.50005 0 0 0 5.5 9 L 4.0917969 9 C 4.0452793 8.8674849 4 8.6919817 4 8.4980469 C 4 7.4648846 4.2984493 6.8302913 4.5800781 6.4394531 C 4.8617069 6.0486149 5.0898438 5.9316406 5.0898438 5.9316406 L 5.2949219 5.8183594 L 5.3398438 5.5898438 C 5.3398438 5.5898438 5.474128 4.9242843 5.890625 4.2636719 C 6.307122 3.6030595 6.9289683 3 8.0371094 3 z M 6.5 7 A 0.5 0.5 0 0 0 6 7.5 A 0.5 0.5 0 0 0 6.5 8 A 0.5 0.5 0 0 0 7 7.5 A 0.5 0.5 0 0 0 6.5 7 z M 9.5 7 A 0.5 0.5 0 0 0 9 7.5 A 0.5 0.5 0 0 0 9.5 8 A 0.5 0.5 0 0 0 10 7.5 A 0.5 0.5 0 0 0 9.5 7 z M 8 11 A 1 0.5 0 0 0 7 11.5 A 1 0.5 0 0 0 8 12 A 1 0.5 0 0 0 9 11.5 A 1 0.5 0 0 0 8 11 z"></path>
</svg>