<svg xmlns="http://www.w3.org/2000/svg" viewBox="0 0 16 16">
    <path style="line-height:normal;text-indent:0;text-align:start;text-decoration-line:none;text-decoration-style:solid;text-decoration-color:#000;text-transform:none;block-progression:tb;isolation:auto;mix-blend-mode:normal" d="M 13.492188 2.9921875 A 0.50005 0.50005 0 0 0 13 3.5 L 13 4 L 3 4 C 3 3.4534686 2.5465314 3 2 3 A 0.50005 0.50005 0 0 0 1.65625 3.1445312 C 1.293594 3.2955915 1 3.5867981 1 4 L 0.5 4 A 0.50005 0.50005 0 0 0 0 4.5 L 0 7.5 A 0.50005 0.50005 0 0 0 0.5 8 C 0.799 8 0.94135889 8.036789 0.93359375 8.03125 C 0.92660375 8.02626 0.98226653 8.130729 0.99414062 8.453125 L 0.021484375 11.732422 A 0.50005 0.50005 0 0 0 0.328125 12.345703 L 2.078125 12.982422 A 0.50005 0.50005 0 0 0 2.7265625 12.662109 L 3.2460938 11 A 0.50005 0.50005 0 0 0 3.2597656 11 L 4.5 11 C 5.3225314 11 6 10.322531 6 9.5 L 6 9 L 7 9 L 7 12.5 A 0.50005 0.50005 0 0 0 7.5 13 L 9.5 13 A 0.50005 0.50005 0 0 0 10 12.5 L 10 8.5800781 A 0.50005 0.50005 0 0 0 10 8.4179688 L 10 7 L 12 7 L 12 9.5 A 0.50005 0.50005 0 1 0 13 9.5 L 13 7 L 14.5 7 A 0.50005 0.50005 0 0 0 15 6.5 L 15 6 L 15.5 6 A 0.50005 0.50005 0 1 0 15.5 5 L 15 5 L 15 4.5 A 0.50005 0.50005 0 0 0 14.5 4 L 14 4 L 14 3.5 A 0.50005 0.50005 0 0 0 13.492188 2.9921875 z M 1 5 L 1.4199219 5 A 0.50005 0.50005 0 0 0 1.5820312 5 L 2.4199219 5 A 0.50005 0.50005 0 0 0 2.5820312 5 L 13.419922 5 A 0.50005 0.50005 0 0 0 13.582031 5 L 14 5 L 14 6 L 12.591797 6 A 0.50005 0.50005 0 0 0 12.492188 5.9921875 A 0.50005 0.50005 0 0 0 12.417969 6 L 9.5917969 6 A 0.50005 0.50005 0 0 0 9.4921875 5.9921875 A 0.50005 0.50005 0 0 0 9.4179688 6 L 3.5 6 A 0.50005 0.50005 0 1 0 3.5 7 L 9 7 L 9 8 L 7.5800781 8 A 0.50005 0.50005 0 0 0 7.4179688 8 L 5.5917969 8 A 0.50005 0.50005 0 0 0 5.4921875 7.9921875 A 0.50005 0.50005 0 0 0 5.4179688 8 L 3.5058594 8 A 0.50005 0.50005 0 0 0 3.0273438 8.3515625 L 1.9296875 11.863281 L 1.1132812 11.566406 L 1.9785156 8.6425781 A 0.50005 0.50005 0 0 0 2 8.5 C 2 7.933 1.871937 7.4742886 1.5136719 7.21875 C 1.3320884 7.0892326 1.1736299 7.1293941 1 7.1074219 L 1 5 z M 3.8730469 9 L 5 9 L 5 9.5 C 5 9.7814686 4.7814686 10 4.5 10 L 3.5605469 10 L 3.8730469 9 z M 8 9 L 9 9 L 9 12 L 8 12 L 8 9 z"></path>
</svg>