<svg xmlns="http://www.w3.org/2000/svg" viewBox="0 0 16 16">
    <path d="M 4.4902344 1 A 0.50005 0.50005 0 0 0 3.9921875 1.4765625 C 3.9921875 1.4765625 3.9308505 2.5540419 4.3222656 3.6660156 C 4.517973 4.2220025 4.8328115 4.8018438 5.3515625 5.2519531 C 5.5700901 5.441565 5.8332929 5.5959962 6.1230469 5.7207031 C 5.1922143 6.4424533 4.4956729 7.4852616 4.0019531 8.625 C 3.3154993 10.209659 3 11.99553 3 13.5 A 0.50005 0.50005 0 0 0 3.8535156 13.853516 L 4.5 13.207031 L 5.1464844 13.853516 A 0.50005 0.50005 0 0 0 5.8535156 13.853516 L 6.5 13.207031 L 7.1464844 13.853516 A 0.50005 0.50005 0 0 0 7.8535156 13.853516 L 8.5 13.207031 L 9.1464844 13.853516 A 0.50005 0.50005 0 0 0 9.8535156 13.853516 L 10.5 13.207031 L 11.146484 13.853516 A 0.50005 0.50005 0 0 0 12 13.5 L 12 11.5 A 0.50005 0.50005 0 1 0 11 11.5 L 11 12.292969 L 10.853516 12.146484 A 0.50005 0.50005 0 0 0 10.146484 12.146484 L 9.5 12.792969 L 8.8535156 12.146484 A 0.50005 0.50005 0 0 0 8.1464844 12.146484 L 7.5 12.792969 L 6.8535156 12.146484 A 0.50005 0.50005 0 0 0 6.1464844 12.146484 L 5.5 12.792969 L 4.8535156 12.146484 A 0.50005 0.50005 0 0 0 4.2988281 12.042969 C 4.4317028 11.024303 4.5011663 9.990123 4.9199219 9.0234375 C 5.5352616 7.6029431 6.4546476 6.4523862 7.6484375 5.9804688 A 0.50005 0.50005 0 0 0 7.9472656 5.265625 A 0.50005 0.50005 0 0 0 7.9414062 5.2539062 A 0.50005 0.50005 0 0 0 7.8925781 5.1816406 A 0.50005 0.50005 0 0 0 7.8847656 5.171875 A 0.50005 0.50005 0 0 0 7.859375 5.1445312 A 0.50005 0.50005 0 0 0 7.8496094 5.1367188 A 0.50005 0.50005 0 0 0 7.8222656 5.1113281 A 0.50005 0.50005 0 0 0 7.8125 5.1035156 A 0.50005 0.50005 0 0 0 7.78125 5.0820312 A 0.50005 0.50005 0 0 0 7.7714844 5.0761719 A 0.50005 0.50005 0 0 0 7.7382812 5.0566406 A 0.50005 0.50005 0 0 0 7.7265625 5.0507812 A 0.50005 0.50005 0 0 0 7.6933594 5.0351562 A 0.50005 0.50005 0 0 0 7.5019531 4.9980469 A 0.50005 0.50005 0 0 0 7.484375 4.9980469 C 6.7976431 4.9947699 6.3486516 4.7954804 6.0058594 4.4980469 C 5.6602354 4.1981562 5.4219176 3.7779975 5.265625 3.3339844 C 5.0976863 2.8568858 5.1433658 2.7097531 5.1171875 2.3613281 L 6.2734375 2.9453125 A 0.50005 0.50005 0 0 0 6.8535156 2.8535156 L 7.5 2.2070312 L 8.1464844 2.8535156 A 0.50005 0.50005 0 0 0 8.8554688 2.8515625 L 9.4941406 2.2011719 L 10.146484 2.8535156 A 0.50005 0.50005 0 0 0 10.867188 2.8398438 L 11.353516 2.3144531 C 11.64421 2.78163 12.029132 3.5023246 12 4.3574219 C 11.985809 4.7776065 11.507311 5.5447596 11.076172 6.234375 A 0.50018678 0.50018678 0 0 0 11 6.5 C 11 6.5 10.840243 7.2073734 10.5 7.8769531 C 10.498668 7.8795748 10.497432 7.8821452 10.496094 7.8847656 C 10.247673 8.2724228 10 8.725733 10 9 C 10 9.552 10.448 10 11 10 C 11.552 10 12 9.552 12 9 C 12 8.9048276 11.963265 8.7844619 11.914062 8.65625 L 15 7.5 L 12.285156 6.1933594 C 12.629794 5.6643161 12.976666 5.0834727 13 4.3925781 C 13.059791 2.6375225 11.826172 1.1855469 11.826172 1.1855469 A 0.50005 0.50005 0 0 0 11.4375 1 L 11.425781 1 A 0.50005 0.50005 0 0 0 11.058594 1.1601562 L 10.486328 1.7792969 L 9.8535156 1.1464844 A 0.50005 0.50005 0 0 0 9.5 1 L 9.484375 1 A 0.50005 0.50005 0 0 0 9.1269531 1.1484375 L 8.4960938 1.7890625 L 7.8535156 1.1464844 A 0.50005 0.50005 0 0 0 7.1464844 1.1464844 L 6.4023438 1.890625 L 4.7480469 1.0546875 A 0.50005 0.50005 0 0 0 4.5214844 1 L 4.4902344 1 z M 9.5 6 A 0.5 0.5 0 0 0 9 6.5 A 0.5 0.5 0 0 0 9.5 7 A 0.5 0.5 0 0 0 10 6.5 A 0.5 0.5 0 0 0 9.5 6 z"></path>
</svg>