<svg xmlns="http://www.w3.org/2000/svg" viewBox="0 0 16 16">
    <path style="line-height:normal;text-indent:0;text-align:start;text-decoration-line:none;text-decoration-style:solid;text-decoration-color:#000;text-transform:none;block-progression:tb;isolation:auto;mix-blend-mode:normal" d="M 8.3574219 2 C 6.5622813 2 5.3624761 2.642235 4.6425781 3.3007812 C 3.9226801 3.9593276 3.6523438 4.6640625 3.6523438 4.6640625 A 0.50005 0.50005 0 0 0 3.6289062 4.7519531 C 3.5180833 4.8621944 1.9921875 6.4130689 1.9921875 8.5 C 1.9921875 10.311802 2.8776222 11.726269 4.0917969 12.638672 C 5.3059716 13.551075 6.8377434 14 8.25 14 C 10.340824 14 11.590816 13.162491 12.246094 12.302734 C 12.901372 11.442977 12.998047 10.552734 12.998047 10.552734 A 0.50005 0.50005 0 0 0 12.5 10 L 11.5 10 A 0.50005 0.50005 0 0 0 11.003906 10.4375 C 11.003906 10.4375 10.918006 11.092338 10.525391 11.742188 C 10.132774 12.392035 9.513587 13 8.25 13 C 7.4349735 13 6.9302284 12.496595 6.5605469 11.806641 C 6.1908653 11.116686 6.0410156 10.24553 6.0410156 9.9453125 C 6.0410156 9.6384702 6.1104238 9.2812977 6.2226562 8.9238281 C 6.4719486 9.2475054 6.7875628 9.6052346 7.2089844 9.90625 A 0.50005 0.50005 0 1 0 7.7910156 9.09375 C 7.199647 8.6713438 6.8546867 8.1183257 6.7070312 7.8652344 C 6.9380412 7.5017647 7.2037303 7.2338695 7.3867188 7.0996094 C 7.6871142 7.6114548 8.3188991 8.5223753 9.296875 8.9570312 A 0.50013726 0.50013726 0 0 0 9.703125 8.0429688 C 9.2254342 7.8306617 8.8144585 7.3570163 8.5078125 6.9355469 C 9.1500021 6.8533281 9.6489099 6.6930479 10.033203 6.4589844 C 10.599075 6.114326 10.898122 5.636111 11.123047 5.2519531 C 11.347971 4.8677953 11.508537 4.5836564 11.800781 4.3769531 C 12.093025 4.1702499 12.562845 4 13.496094 4 A 0.50005 0.50005 0 1 0 13.496094 3 C 12.437343 3 11.725694 3.2047501 11.222656 3.5605469 C 10.719619 3.9163436 10.473966 4.3822047 10.259766 4.7480469 C 10.045565 5.113889 9.8713315 5.385674 9.5136719 5.6035156 C 9.1723812 5.8113873 8.6090709 5.9788158 7.6308594 5.9941406 C 7.6301605 5.9941516 7.6296056 5.9941298 7.6289062 5.9941406 A 0.50005 0.50005 0 0 0 7.578125 5.9960938 C 7.5759927 5.9961135 7.5744019 5.9960755 7.5722656 5.9960938 C 7.5458564 5.9963199 7.5270206 6 7.5 6 A 0.50005 0.50005 0 0 0 7.4296875 6.0058594 C 7.4141709 6.008076 7.4000632 6.0129686 7.3847656 6.015625 A 0.50005 0.50005 0 0 0 7.25 6 C 5.5434961 6 4.9232211 5.1127023 4.7382812 4.8125 C 4.8015395 4.6737579 4.8732845 4.4444202 5.3164062 4.0390625 C 5.8755082 3.5276088 6.7945624 3 8.3574219 3 L 9.5 3 L 12.482422 3 A 0.50005 0.50005 0 1 0 12.482422 2 L 8.3574219 2 z M 9.5 3 A 0.5 0.5 0 0 0 9 3.5 A 0.5 0.5 0 0 0 9.5 4 A 0.5 0.5 0 0 0 10 3.5 A 0.5 0.5 0 0 0 9.5 3 z M 4.1503906 5.6835938 C 4.5485991 6.1037654 5.2208104 6.6170347 6.1757812 6.8574219 C 6.0270792 7.0525004 5.8864971 7.2605487 5.7578125 7.4863281 C 5.7391162 7.5191312 5.7252339 7.5564533 5.7070312 7.5898438 C 5.7045489 7.5943974 5.7016916 7.5989514 5.6992188 7.6035156 A 0.50005 0.50005 0 0 0 5.65625 7.6914062 C 5.295844 8.3829637 5.0410156 9.1793934 5.0410156 9.9453125 C 5.0410156 10.497095 5.2113691 11.405251 5.6796875 12.279297 C 5.7000455 12.317297 5.743821 12.344988 5.765625 12.382812 C 5.396941 12.216472 5.0111086 12.078619 4.6933594 11.839844 C 3.6805341 11.078747 2.9921875 9.9941978 2.9921875 8.5 C 2.9921875 7.2894756 3.7581536 6.1761591 4.1503906 5.6835938 z" font-weight="400" font-family="sans-serif" white-space="normal" overflow="visible"></path>
</svg>