<svg xmlns="http://www.w3.org/2000/svg" viewBox="0 0 16 16">
    <path style="line-height:normal;text-indent:0;text-align:start;text-decoration-line:none;text-decoration-style:solid;text-decoration-color:#000;text-transform:none;block-progression:tb;isolation:auto;mix-blend-mode:normal" d="M 3.4921875 1.9921875 A 0.50005 0.50005 0 0 0 3 2.5 L 3 4 A 0.50005 0.50005 0 0 0 3.1054688 4.3066406 L 4.8027344 6.4882812 L 3.3320312 6.0410156 L 1.7617188 5.0742188 A 0.50005 0.50005 0 0 0 1.4765625 4.9960938 A 0.50005 0.50005 0 0 0 1.2382812 5.9257812 L 2.8632812 6.9257812 A 0.50005 0.50005 0 0 0 2.9785156 6.9785156 L 4.5839844 7.4667969 L 2.6816406 8 L 1.5 8 A 0.50005 0.50005 0 1 0 1.5 9 L 2.75 9 A 0.50005 0.50005 0 0 0 2.8847656 8.9824219 L 4.2539062 8.5996094 C 4.2052909 8.7013987 4.1635604 8.8077765 4.1289062 8.9179688 L 2.1367188 11.033203 A 0.50005 0.50005 0 0 0 2 11.375 L 2 13.5 A 0.50005 0.50005 0 1 0 3 13.5 L 3 11.574219 L 4.0800781 10.425781 C 4.2181033 11.114979 4.5315664 11.823331 4.9707031 12.443359 C 5.5705646 13.29032 6.4388506 14 7.5 14 C 8.5611494 14 9.4294352 13.29032 10.029297 12.443359 C 10.468433 11.823331 10.781897 11.114979 10.919922 10.425781 L 12 11.574219 L 12 13.5 A 0.50005 0.50005 0 1 0 13 13.5 L 13 11.375 A 0.50005 0.50005 0 0 0 12.863281 11.033203 L 10.871094 8.9179688 C 10.83644 8.8077765 10.794709 8.7013987 10.746094 8.5996094 L 12.115234 8.9824219 A 0.50005 0.50005 0 0 0 12.25 9 L 13.5 9 A 0.50005 0.50005 0 1 0 13.5 8 L 12.318359 8 L 10.416016 7.4667969 L 12.021484 6.9785156 A 0.50005 0.50005 0 0 0 12.136719 6.9257812 L 13.761719 5.9257812 A 0.50005 0.50005 0 0 0 13.507812 4.9960938 A 0.50005 0.50005 0 0 0 13.238281 5.0742188 L 11.667969 6.0410156 L 10.197266 6.4882812 L 11.894531 4.3066406 A 0.50005 0.50005 0 0 0 12 4 L 12 2.5 A 0.50005 0.50005 0 0 0 11.492188 1.9921875 A 0.50005 0.50005 0 0 0 11 2.5 L 11 3.828125 L 9.8398438 5.3203125 C 9.7014383 5.0138845 9.4868483 4.743066 9.2148438 4.5390625 C 9.1478841 4.4888428 9.0727115 4.4479987 9 4.4042969 L 9 3.5 A 0.50005 0.50005 0 0 0 8.4921875 2.9921875 A 0.50005 0.50005 0 0 0 8 3.5 L 8 4.0410156 C 7.837504 4.0151216 7.6712527 4 7.5 4 C 7.3287473 4 7.162496 4.0151216 7 4.0410156 L 7 3.5 A 0.50005 0.50005 0 0 0 6.4921875 2.9921875 A 0.50005 0.50005 0 0 0 6 3.5 L 6 4.4042969 C 5.9272885 4.4479987 5.8521159 4.4888428 5.7851562 4.5390625 C 5.5131517 4.743066 5.2985617 5.0138845 5.1601562 5.3203125 L 4 3.828125 L 4 2.5 A 0.50005 0.50005 0 0 0 3.4921875 1.9921875 z M 7.5 5 C 7.9509522 5 8.3490133 5.1416427 8.6132812 5.3398438 C 8.8775496 5.5380448 9 5.7659331 9 6 C 9 6.2340669 8.8775496 6.4619552 8.6132812 6.6601562 C 8.3490133 6.8583573 7.9509522 7 7.5 7 C 7.0490478 7 6.6509869 6.8583573 6.3867188 6.6601562 C 6.1224505 6.4619552 6 6.2340669 6 6 C 6 5.7659331 6.1224506 5.5380448 6.3867188 5.3398438 C 6.6509869 5.1416427 7.0490478 5 7.5 5 z M 7.5 8 C 8.2606062 8 8.9190311 8.1627756 9.3457031 8.4433594 C 9.7723752 8.7239432 10 9.0772683 10 9.6816406 C 10 10.286013 9.6987792 11.181146 9.2128906 11.867188 C 8.7270021 12.553225 8.0958506 13 7.5 13 C 6.9041494 13 6.2729979 12.553227 5.7871094 11.867188 C 5.3012208 11.181146 5 10.286013 5 9.6816406 C 5 9.0772683 5.2276248 8.7239432 5.6542969 8.4433594 C 6.0809689 8.1627756 6.7393938 8 7.5 8 z"></path>
</svg>