<svg xmlns="http://www.w3.org/2000/svg" viewBox="0 0 16 16">
    <path style="line-height:normal;text-indent:0;text-align:start;text-decoration-line:none;text-decoration-style:solid;text-decoration-color:#000;text-transform:none;block-progression:tb;isolation:auto;mix-blend-mode:normal" d="M 11 1 C 11 1 10.070244 1.5993984 10.011719 3.5683594 C 9.4248792 3.0296889 8.837616 2.5626326 8.2050781 2.2773438 C 7.6706936 2.0363242 7.0859303 1.9282274 6.4921875 2.0527344 C 5.8984447 2.1772414 5.3215477 2.5219291 4.7597656 3.0839844 C 3.6357014 4.2080486 2.6881027 6.0284156 2.2480469 7.8847656 C 1.8079911 9.7411157 1.8644781 11.695916 3.0839844 12.916016 C 4.3035658 14.13619 6.2589917 14.194099 8.1152344 13.753906 C 9.9714771 13.313713 11.79198 12.36427 12.916016 11.240234 C 13.478048 10.678202 13.822859 10.103572 13.947266 9.5097656 C 14.071672 8.915959 13.963735 8.3292788 13.722656 7.7949219 C 13.437963 7.1638937 12.960886 6.5756835 12.423828 5.9902344 C 14.399419 5.9340968 15 5 15 5 L 11.853516 5 C 12.150834 4.853201 12.457868 4.6671317 12.75 4.375 C 13.75 3.375 14 2 14 2 C 14 2 12.687 2.313 11.75 3.25 C 11.385666 3.614334 11.166962 3.9618224 11 4.2832031 L 11 1 z M 7.2324219 3.015625 C 7.4125081 3.0423649 7.5976141 3.1004631 7.7949219 3.1894531 C 8.5841529 3.5454142 9.5047681 4.4378616 10.533203 5.4667969 C 11.561742 6.495836 12.454455 7.4177452 12.810547 8.2070312 C 12.988593 8.6016743 13.042234 8.9446191 12.966797 9.3046875 C 12.891357 9.6647559 12.675452 10.066735 12.208984 10.533203 C 11.27602 11.466168 9.5622729 12.383443 7.8847656 12.78125 C 6.2072583 13.179057 4.6274342 13.04581 3.7910156 12.208984 C 2.9545219 11.372084 2.8230089 9.7928843 3.2207031 8.1152344 C 3.6183973 6.4375844 4.5338611 4.7239514 5.4667969 3.7910156 C 5.9330148 3.3245709 6.3372584 3.106743 6.6972656 3.03125 C 6.8772692 2.9935035 7.0523356 2.9888851 7.2324219 3.015625 z M 6.4375 5 C 6.293625 5.000125 6.1490625 5.0545625 6.0390625 5.1640625 C 5.8190625 5.3830625 5.625 6.375 5.625 6.375 C 5.625 6.375 6.6159375 6.1799375 6.8359375 5.9609375 C 7.0559375 5.7419375 7.0549375 5.3840625 6.8359375 5.1640625 C 6.7264375 5.0540625 6.581375 4.999875 6.4375 5 z M 8.4375 7 C 8.293625 7 8.1490625 7.0540625 8.0390625 7.1640625 C 7.8190625 7.3830625 7.625 8.375 7.625 8.375 C 7.625 8.375 8.6169375 8.1809375 8.8359375 7.9609375 C 9.0559375 7.7419375 9.0559375 7.3840625 8.8359375 7.1640625 C 8.7264375 7.0540625 8.581375 7 8.4375 7 z M 5.4375 8 C 5.293625 8 5.1490625 8.0540625 5.0390625 8.1640625 C 4.8190625 8.3830625 4.625 9.375 4.625 9.375 C 4.625 9.375 5.6169375 9.1809375 5.8359375 8.9609375 C 6.0559375 8.7419375 6.0559375 8.3840625 5.8359375 8.1640625 C 5.7264375 8.0540625 5.581375 8 5.4375 8 z M 10.4375 9 C 10.293625 9 10.149062 9.0540625 10.039062 9.1640625 C 9.8190625 9.3830625 9.625 10.375 9.625 10.375 C 9.625 10.375 10.616938 10.180938 10.835938 9.9609375 C 11.055937 9.7419375 11.055938 9.3840625 10.835938 9.1640625 C 10.726437 9.0540625 10.581375 9 10.4375 9 z M 7.4375 10 C 7.293625 10 7.1490625 10.054063 7.0390625 10.164062 C 6.8190625 10.383063 6.625 11.375 6.625 11.375 C 6.625 11.375 7.6169375 11.180938 7.8359375 10.960938 C 8.0559375 10.741937 8.0559375 10.384063 7.8359375 10.164062 C 7.7264375 10.054062 7.581375 10 7.4375 10 z" font-weight="400" font-family="sans-serif" white-space="normal" overflow="visible"></path>
</svg>