<svg xmlns="http://www.w3.org/2000/svg" viewBox="0 0 16 16">
    <path style="line-height:normal;text-indent:0;text-align:start;text-decoration-line:none;text-decoration-style:solid;text-decoration-color:#000;text-transform:none;block-progression:tb;isolation:auto;mix-blend-mode:normal" d="M 11.271484 2 L 4.9746094 9.2675781 L 3.8535156 8.1464844 A 0.50005 0.50005 0 0 0 3.4941406 7.9941406 A 0.50005 0.50005 0 0 0 3.1464844 8.8535156 L 4.7929688 10.5 L 3.2578125 12.035156 A 1 1 0 0 0 3 12 A 1 1 0 0 0 2 13 A 1 1 0 0 0 3 14 A 1 1 0 0 0 4 13 A 1 1 0 0 0 3.9648438 12.742188 L 5.5 11.207031 L 7.1464844 12.853516 A 0.50005 0.50005 0 1 0 7.8535156 12.146484 L 6.7324219 11.025391 L 14 4.7285156 L 14 2 L 11.271484 2 z M 11.728516 3 L 13 3 L 13 4.2714844 L 6.0253906 10.318359 L 5.6816406 9.9746094 L 11.728516 3 z" font-weight="400" font-family="sans-serif" white-space="normal" overflow="visible"></path>
</svg>